<?xml version="1.0" encoding="UTF-8" standalone="no"?>
<!-- Uploaded to: SVG Repo, www.svgrepo.com, Generator: SVG Repo Mixer Tools -->

<svg
   fill="#000000"
   width="20cm"
   height="20cm"
   viewBox="0 0 30.23622 30.23622"
   id="Layer_1"
   data-name="Layer 1"
   version="1.1"
   sodipodi:docname="humberger.svg"
   inkscape:version="1.4.3 (fcd0343856, 2026-01-01)"
   xmlns:inkscape="http://www.inkscape.org/namespaces/inkscape"
   xmlns:sodipodi="http://sodipodi.sourceforge.net/DTD/sodipodi-0.dtd"
   xmlns="http://www.w3.org/2000/svg"
   xmlns:svg="http://www.w3.org/2000/svg">
  <defs
     id="defs1" />
  <sodipodi:namedview
     id="namedview1"
     pagecolor="#ffffff"
     bordercolor="#000000"
     borderopacity="0.25"
     inkscape:showpageshadow="2"
     inkscape:pageopacity="0.0"
     inkscape:pagecheckerboard="0"
     inkscape:deskcolor="#d1d1d1"
     inkscape:zoom="0.805625"
     inkscape:cx="1012.8782"
     inkscape:cy="205.43057"
     inkscape:window-width="2490"
     inkscape:window-height="1536"
     inkscape:window-x="70"
     inkscape:window-y="27"
     inkscape:window-maximized="1"
     inkscape:current-layer="Layer_1"
     inkscape:document-units="cm"
     showguides="true" />
  <path
     d="m 27.781665,12.948936 h -0.27057 v -2.16855 c 0,-4.9761394 -5.56597,-9.0198994 -12.40748,-9.0198994 -6.8415195,0 -12.4074895,4.05424 -12.4074895,9.0198994 v 2.16855 h -0.46383 c -0.81171,0 -1.46880003,0.71237 -1.46880003,1.59236 v 1.11046 c 0,0.87999 0.65709003,1.59237 1.46880003,1.59237 h 0.46383 v 2.16854 c 0,4.96567 5.56597,9.00943 12.4074895,9.00943 6.84151,0 12.40748,-4.04376 12.40748,-9.00943 v -2.16854 h 0.27057 c 0.8117,0 1.4688,-0.71238 1.4688,-1.59237 v -1.11046 c 0,-0.87999 -0.6571,-1.59236 -1.4688,-1.59236 z M 15.103615,3.3423766 c 5.65294,0 10.32024,2.92282 10.90003,6.6627794 H 4.2035755 C 4.7833655,6.2651966 9.4506653,3.3423766 15.103615,3.3423766 Z M 4.1455955,11.566086 H 26.061625 v 1.38285 H 4.1455955 Z m 10.9580195,15.27412 c -5.6529497,0 -10.3202495,-2.92282 -10.9000395,-6.65231 H 16.272855 l 1.73936,3.14283 c 0.13529,0.24095 0.3672,0.37714 0.61845,0.37714 0.25124,0 0.49282,-0.14667 0.61844,-0.37714 l 1.73937,-3.14283 h 4.99585 c -0.57979,3.72949 -5.2471,6.65231 -10.90004,6.65231 z m 10.95801,-8.22372 h -5.46934 c -0.25125,0 -0.49282,0.14667 -0.61845,0.37714 l -1.33351,2.39902 -1.33352,-2.39902 c -0.13528,-0.24095 -0.3672,-0.37714 -0.61844,-0.37714 H 4.1455955 v -1.38284 H 26.061625 Z m 1.72004,-2.95425 -25.5686995,-0.0209 0.0193,-1.13142 h 1.1789 c 0,0 0,0 0,0 H 26.786335 c 0,0 0,0 0,0 h 0.98564 c 0,0 0.0193,0.021 0.0193,0.021 l -0.0193,1.13142 z"
     id="path1"
     style="stroke-width:1.00614" />
</svg>
