<?xml version='1.0' encoding='utf-8'?>
<svg xmlns="http://www.w3.org/2000/svg" enable-background="new 0 0 612 792" version="1.1" viewBox="0 0 612 792"> <g stroke="#000" stroke-linecap="round" stroke-linejoin="round" stroke-miterlimit="10"> <path d="m439.4 244.5c3.1-2.2 5.2-4.6 7.9-6.2 7-4.1 11.6-2.9 15.3 4.3 2.9 5.6 3.3 11.6 2.7 17.7-0.3 2.6-0.3 4.6 2.9 5.1 1.5 0.2 2.5 2.6 4 1.8 1.1-0.6 1.5-2.5 2.2-3.9 7.6-15 17.1-28.6 30.7-38.9 10.8-8.2 22.8-12.8 36.7-11.4 13.4 1.4 24.5 10.5 27.5 22.7 2 8.1 0 15.6-4.2 22.5-7.5 12.2-18 21.3-29.9 29.1-9.5 6.2-19.6 11-30.4 14.6-1.9 0.6-2 1.3-1.3 3 7.8 19.9 8.9 40.2 3.8 60.9-0.4 1.6-0.3 3.1 0.2 4.7 1.6 4.8 2.6 9.7 2.4 14.8-0.1 2.6-0.9 5-2.8 6.9-0.9 0.8-2.2 1.7-3 1.2-3-1.5-2.9 0.8-3.5 2.4-0.8 2.2-2.1 4.1-3.7 6.4 6.1-2.5 11.9-5 17.6-7.3 3.5-1.4 7.2-2.3 11-2.8 2.9-0.4 3.4 0.3 2.7 3-1.7 6-3.4 12-5.2 18-1.1 3.5-2.5 7-4.4 10.1-2.2 3.5-4 4.3-8 3.6-6.3-1.2-12.4-0.7-18.5 1.2-3.2 1-6.3 1.8-9.6 2.4 10 0.9 19.5 4.4 29.4 5.1 4.6 0.3 9.3-0.3 13.9-0.7 1.1-0.1 2.3-0.5 3.1 0.8 0.7 1.2-0.4 1.9-0.9 2.7-3.9 5.4-7.9 10.7-13.2 14.7-2.3 1.7-4.5 2.5-7.4 1.5-5.1-1.8-10.3-1.9-15.6-0.7-10.3 2.4-19.4-0.9-28-6.3-7.6-4.8-14.6-10.4-21.6-16.2 2.6 3.1 5.2 6.2 7.8 9.3 6.9 8 14.4 15.2 22.7 21.8 4 3.2 3.9 3.3-0.2 6.1-3.4 2.3-6.7 4.6-10.3 7.1 2.9 1.5 5.2 3 7.3 4.9 1.3 1.2 1.6 0.7 2.3-0.6 4.3-8.4 11-12.9 20.6-13.1 9-0.1 15.7 5 17.7 13.7 0.2 0.9 0.1 1.7 1.5 1.8 4.9 0.4 7.6 3.1 8.8 8.2 1.5 6.3-0.2 12-3 17.5-0.8 1.6-1.2 2.9-0.4 4.7 1.3 2.8 0.2 5.6-0.9 8.2-1.5 3.5-3.7 6.6-6.8 9-0.4 0.3-1.1 0.7-1.2 1.1-2.8 8.4-9.9 10.9-17.5 12.5-2 0.4-2.2 1.1-2.1 2.7 0.3 7-0.3 13.8-3.1 20.3-6.3 14.6-22 19.5-35.1 10.5-5-3.5-10.3-5.7-15.8-8.1-5.1-2.2-9.4-2.6-14.3-0.4-1.8 0.8-4.8-0.1-5.5 1.7-0.6 1.6 0.6 4 1.1 6 2.2 8.9 4.1 17.9 3.9 27.1-0.1 4.5-0.6 8.9-2.4 13-7.1 17-24.3 16.9-34.7 8.6-7.6-6.1-11.3-14.6-13.4-23.8-0.8-3.5-1.3-7.1-1.8-10.6-0.2-1.1-0.3-2.2-1.5-2.8-12.8-6.7-19.6-18-24-31.1-3.6-10.5-4.8-21.4-4.6-32.4v-3.6c-19.7 5.2-38.2 3.3-55.5-8.3-0.6 4.7-1.1 9-1.8 13.4-0.7 4.1-1.6 8.2-3.4 12-1.4 2.8-1.9 5.8-2.4 8.9-3.3 20.4-12.3 37.4-30.2 48.9-1.6 1-1.8 2-1.3 3.7 1.6 6.4 2.5 12.9 2.3 19.6-0.4 16-13.3 23.1-24.8 22.8-13-0.3-23-8-27.7-21.1-2.3-6.4-3.3-13-3.8-19.7-0.6-8.8-0.6-17.6 0.6-26.5-2.1 2.4-4.5 4.4-6.8 6.5-0.7 0.6-0.4 1.6-0.4 2.4-0.4 6.2-0.7 12.5-2.7 18.5-3.1 9.9-8.9 17.6-19.1 21-14.9 5.1-30.4-2.8-35.4-17.9-1.8-5.3-2.4-10.7-2.5-16.2-0.3-12.5 0.6-24.9 3.6-37.1 0.6-2.3 1.4-4.4 0.6-6.9-0.4-1.3-0.7-1.8-2.1-2-9.7-1.3-16.2-7.3-20.9-15.4-1.5-2.5-2-5.4 0.1-8 1.1-1.4-0.2-1.9-0.6-2.6-6-10-6.6-20.4-2-30.9 1.9-4.5 5.2-7.8 10.8-7 1.2 0.2 1.2-0.7 1.5-1.3 3.9-9 10.6-13.4 20.4-13.3 8.6 0.1 15.9 5.2 19.3 13.5 14.1-9.8 27.9-20.3 31.9-41.6-3.9-0.6-7.7-1.2-11.6-2-16.9-3.6-31.3-11.7-43.4-23.8-4-4-6.7-8.9-7.8-14.6-0.2-1.1-0.3-1.5-1.7-1.3-4 0.6-6.5-1.3-7.4-5.5-1.4-6.3 0.4-12.3 3-17.8 1.5-3.2 2-6.3 1.9-9.8-0.5-14 0-28 3.6-41.7 1.6-6 3.7-11.9 6.9-17.4 0.9-1.6 0.8-2-1.1-2.6-21.8-6.6-40.6-17.9-55.8-34.9-0.4-0.5-1-0.9-1.3-1.5-1.7-2.9-4.2-4.3-7.6-5.2-8.7-2.3-12.6-10.3-9.8-19.6 3.3-10.9 10.6-18.6 20.2-24.3 17.5-10.3 34.4-7.3 50.4 3.5 18.2 12.3 29.2 30 36.2 50.5 0.1 0.3 0.2 0.7 0.5 1.4 2-2.2 3.5-4.6 6.3-5.6 0.7-0.3 0.5-1.1 0.7-1.8 0.9-3.4 1.6-6.9 4.4-9.3 1.1-1 0.1-1.4-0.4-2-3.9-5-7.6-10.2-11-15.5-11.1-17.6-18.3-36.5-20.3-57.2-0.8-8.8-0.8-17.8 2.1-26.4 2.5-7.4 6.5-13.8 14.8-15.8 6.9-1.7 13.1 0.5 18.8 4.3 8.5 5.5 14.5 13.3 19.5 21.8 9.5 16.3 15.4 34 18.5 52.6 2.5 15.2 3.6 30.4 2.6 45.8-0.1 1.5 0.2 1.8 1.7 2 21.3 2.5 39.3 11.6 54.4 26.8 7 7.1 12.7 15.3 17.6 24 0.9 1.7 1.9 3.3 2.9 4.9 1.8 3.2 3.9 5.5 8.1 6 4.7 0.5 8.8 3 11.4 7.3 2 3.3 1.9 5.4-0.6 8.3-0.7 0.8-1.1 1.3-0.4 2.4 2.8 4.6 4 9.6 3.5 14.9-0.1 1.5 0.1 2.3 1.9 2.2 1.7-0.1 3.4 0.2 5.3 0.4-1.1-5.5-2-10.7-1.3-16.1 0.4-3 1.3-5.9 2.7-8.6 0.6-1.2 0.7-1.8-0.6-2.6-2.4-1.6-3-4.2-1.8-7.1 2.2-5.2 6.4-8.1 11.8-9.3 2.6-0.6 4.1-1.8 5.3-4 3.8-7.2 7.8-14.3 12.8-20.8 10.5-13.5 23.6-23.4 40.1-28.4 2.9-0.9 3.4-2 2.8-4.9-3-14.4-3.3-28.9-2.1-43.5 1.6-19.4 6.9-37.7 15.9-54.9 4.1-7.8 9.5-14.8 16.6-20.3 14-10.7 31.5-5.7 37.6 10.8 3.4 9.2 3.7 18.6 2.6 28.2-2.6 23.7-10.9 45.3-24.2 65-0.3 0.3-0.3 0.6-0.8 1.5zm-245.9-12.6c-0.5-0.1-1.2-0.4-1.5-0.2-0.4 0.2-0.2 0.9 0.1 1.2 2.7 3.3 3.2 7.7 5.9 11.6-0.1-5.1 0.7-10-4.6-12.7 1.8-0.1 2.6 1.8 4.4 2.1-0.1-1.8-0.6-3-2.1-3.9-1.1-0.6-2.4-1-3-2.4 1.8 0.2 2.7 2 4.5 2.4 0.2-4-0.3-7.3-4.2-9.4-2.6-1.4-5.6-2.6-7.4-5.3 3.7 1.7 6.9 4.2 10.5 6.4 0.5-1.6-0.2-2.7-1.1-3.7 0.8-2.3-0.6-8.9-2.5-10.3-4.3-3.2-8.7-6.3-13.8-10 0.9 3.2 1.4 5.7 2.2 8 0.7 2.3 2.1 3.9 4.3 5.3 3.4 2.1 7.3 3.7 9.8 7-3.8-2.4-7.7-4.8-11.8-7.5 0.7 3.1 0.7 3.1 2.4 4.8-1.1 0.7-0.3 1.5-0.1 2.2 0.9 4.4 3.8 7.5 7.3 10.1-1.4 0.3-1.9-1.7-3.3-1.4 0.3 2.9 2.8 3.8 4 5.7zm-11.5-37.5c-1.6 0.2-2.5-1.6-4-1.7 0.1 2.9 0.2 3.8 1.2 4.5 4.6 3.2 9.2 6.3 13.9 9.5-0.1-3.1-1.2-5.3-3.8-6.9-1.2-0.7-2.7-1.4-3.4-2.9 2.2 0.4 3.5 2.3 5.7 3.5-1.4-5-2.7-9.5-5.6-13.5 0.7-2-0.9-3.3-1.5-4.8-2.2-5.1-5.3-9.7-9.1-14.7v9.2c0 1.5 0.5 2.4 1.8 3.2 3.2 2.1 6.5 4.2 9 7.2-3.1-1.4-5.5-3.8-8.4-5.7-0.5-0.3-0.8-0.9-1.5-0.7-0.7 0.3-0.4 1-0.4 1.5 0.5 4.5-0.1 9.5 5.6 11.5 0.2 0.3 0.3 0.6 0.5 0.8zm260.7-17.6c0.7-0.6 1.6-1 1.8-2 1-3.6 1.8-7.3 2.4-11.1-5.9 2.5-19.2 18.3-19.4 22.7 5-3.3 9.6-7.3 15.2-9.6-1.9 2.4-4.7 4-7.4 5.4-7.4 3.8-12.2 9.6-14.8 17.4-0.4 1.2-1.2 2.4-1 4.2 5.7-4.2 11.1-8.1 16.9-11.4 2.7-1.6 4.4-3.6 5.1-6.7 0.5-2.3 1.2-4.6 1.8-6.8 0.3-0.8 0.4-1.6-0.6-2.1zm-305.7 93.8c-11.6-16-32.3-23.2-45.5-17.7 0.3 1 2 0.4 1.8 0.7-1 2.1 1.1 2.2 1.8 3.2 1 1.5 2.7 2.3 4 3.4 6.3 5.2 12.3 10.9 20.6 12.9 0.2 0.1 0.5 0 0.1 0.4-1.3 1.2 0.3 1.3 0.8 1.5 4.1 2 8.1 4 12.3 5.8 4.3 1.8 8.7 3.4 14 4.7-3.4-5.3-6-10.5-9.9-14.9zm268.8 299.4c-1.4 0-2.4 0.8-3.2 1.9-1.2 1.5-2.4 2.9-4.8 4 2-2.2 3.6-3.9 5.7-6.3-4.3 0.9-5.6 5-9.5 6 1.6-1.5 2.9-2.6 4.1-3.8 0.6-0.6 1.7-1.2 1-2-0.8-0.9-1.7 0.1-2.4 0.7-1 0.9-1.8 1.9-3.3 2 1.6-0.4 1.6-1.9 1.6-2.9 0-1.2-1.5-0.6-2.1-0.5-3.7 0.7-7.2-0.8-11.3-1 1.5-0.5 2.5-0.3 3.5 0 0.9 0.3 1.9 0.3 3-0.2-19.7-4.5-34.7-15.1-44.9-32.7 0.6 8.1 2 15.6 5 22.7 6.7 16.2 16.5 28.6 35.8 29.5-3.5 2.1-7.5 1.2-11.8 1.5 4.3 3.2 8.6 2.9 12.9 2-3.7 2.8-7.8 2.9-12 1.4 1.1 12.4 7.2 25.6 14 29.2-2.7-6.4-2.7-6.4-2.4-8.9 6.6 13 15.1 16.6 22 9.1-5.3-0.7-9.4-5.4-8.8-10.4 1.2 2.5 2.6 4.7 4.7 6.4 3.8 3 7.8 2.1 9.6-2.3 1.5-3.6 2-7.5 2.2-11.4 0.4-10.5-1.9-20.6-4.4-30.8-0.5-2.6-1.4-3.9-4.2-3.2zm34.4-343.9c0.2 1-0.5 1.8-1 2.6-4.3 7.8-8.5 15.6-12.8 23.4-0.4 0.7-1.2 1.3-0.1 2.1 1.1 0.7 1.4 0 1.9-0.8 3.9-6.4 7.8-12.8 11.6-19.2 11.2-18.5 18.1-38.5 19.9-60 0.8-9.3 0.2-18.6-4.7-27-4.9-8.5-13.3-11.4-22.4-7.7-5.1 2.1-8.9 5.8-12.3 9.8-8.6 10.1-13.8 22.1-17.7 34.7-7.5 24-8.2 48.5-4 73.2 0.2 1.1-0.2 2.9 1.8 3 1.7 0.1 3.4 0.1 4-2.2 0.3-1.1 1.2-2 2.3-2.4 2.1-0.7 2.5-2 1.9-4-0.3-0.9-0.2-1.9-0.3-2.8-0.8-16.6 1.9-32.6 8.1-48 5.4-13.3 11.9-25.8 22.7-35.6 2.5-2.3 5.2-4.4 8.6-5.4 1.7-0.5 3.1-0.4 2.7 2.1-1.7 10.2-4.1 20.2-7.6 29.9-5.6 15.5-13.5 30-20.7 44.8-2.6 5.3-4.9 10.7-7.4 16.2 2.9 0.2 5.5 0.2 8 0.6 1.4 0.2 2-0.2 2.6-1.4 2.5-4.6 5.1-9.3 7.8-13.8 2.4-4 4.1-8.4 7.1-12.1zm-218.7 206.9c0.3 0.1 0.5 0.2 0.8 0.3 8 2.9 16.2 4.7 24.7 4.2 6.7-0.4 8.4-2.1 8.8-8.8 0.2-2.7-3.1-5.1-5.5-4.1-2.5 1-5 2-8.2 2.4 2.7-1.6 5.4-1.8 7.9-3.9-2.5 0.4-4.3 0.7-6.2 1 3.6-1.9 7.2-3.4 10.8-5 2.9-1.3 4.8-3.3 6.1-6.3 9.2-21.6 22-40.4 43.6-51.6 1.2-0.6 1.1-1.2 0.9-2.5-0.8-3.7-2.5-7-4.1-10.4 2.8 2.7 4 6.2 4.8 9.8 0.1 0.6-0.5 2 1 1.8 1.4-0.2 1-1.4 0.8-2.3-0.8-3.6-2.2-7-4.2-10.2-1.3-2.1-3-3.9-4.6-5.7 5.8 3.6 8.6 9.2 10.2 15.6 0.6-4.7-0.3-9-2.6-13.1-2.4-4.2-6.3-6.3-10.6-7.9 0.5-0.2 1-0.3 1.4-0.2 2.6 0.1 5.3 0.3 7.9 0.4 1.2 0 2.4-0.2 2.9-1.4 0.6-1.4-0.6-2.1-1.3-2.8-3.4-3.3-7.5-4.1-12.1-3.7-0.2 0-0.5-0.1-0.7-0.1 0.1-0.9 1.4-0.8 1.3-2.1-3.6 0.7-4.9-2-6.4-4.3-2.3-3.5-4.3-7.1-6.4-10.7-10.7-18.4-25.5-32-45.5-39.6-8.5-3.2-17.3-5.3-26.5-4.8 1.3 0.4 2.5 0.6 3.8 0.9 3.3 0.7 6.2 2.2 8.5 4.8 2.4 2.8 1.9 5.5-1.3 7.1-0.4 0.2-1 0-1.1 0.9-0.5 4.6-0.9 5.2-5.3 5.4-1.8 0.1-0.7 1.2-1 1.8-6.2-4.5-13.6-4.4-20.6-5.9 0.8-0.3 1.6-0.3 2.3-0.3 6-0.5 11.9 1.2 17.8 1.2 1 0 2.5 0.6 3-0.9 0.4-1.3 0-2.6-1-3.6-2-1.9-4.4-3.3-7-4.2-1.5-0.5-3.2-0.2-4.6-1.4 5.4-0.4 10.3 1.7 15.3 2.4-10.2-7.8-21.3-5-32.6-2.5 2.4-1.9 5-2.6 7.6-3.6 4.8-1.9 9.9-3.1 14.3-6.1 0.9-0.6 2.2-1.3 2-2.5-0.2-1.1-1.6-1.4-2.8-1.6-7.1-1.6-13.7-0.1-20.2 2.7-4 1.7-7.7 3.9-11.5 7.2 0.8-1.9 1.4-3.1 1.8-4.3 1-2.5 0.4-4.9-1.2-6.9-1.5-2-2.5-2-3.9 0.1-1.6 2.5-2 5.5-2.4 8.4-0.5 4-2 7.6-4.2 11-0.1-1.2 0.2-2.3 0.2-3.4 0-1.5 1.1-3.9-0.6-4.3-1.5-0.4-2.6 1.9-3.4 3.3-1.9 3.2-2.2 6.7-1.9 10.4-0.9-1.2-1.6-2.4-2.1-3.6-1.9-4.6-3.7-9.3-5.6-14-7.1-17.3-16.9-32.6-32.6-43.5s-31.4-13.1-46.7-2.5c-7.4 5.1-13.6 11.4-16.1 20.3-2.5 8.8 2 14.3 11.1 14.1 6.6-0.1 12.7-2.6 19-4.4 7.8-2.3 15.8-3.2 23.8-1.4 11.8 2.8 21 9.5 28.5 18.9 5.8 7.3 8.3 16.6 14.8 24-7-0.9-13.3-2.9-19.5-5.2-18-6.7-33.6-16.9-46.7-30.9-0.8-0.9-1.5-1.3-2.7-0.9-3 1.1-6 2-9 3 1.6 3.1 4.4 5.2 6 8.1-2.2-1.7-4-3.7-5.6-5.9-1-1.3-2.3-3-3.8-1.6-1 0.9 0.8 2.2 1.6 3.1 12.5 14.2 28.1 24.1 45.5 31 7.9 3.1 16 5.8 25.1 6.7-2.5 1.7-4.9 3-7.2 2.6-4.5-0.6-5.6 2.4-7 5.4-0.4 0.8-0.7 1.5-1.1 2.3-6.6 15.5-7.7 31.8-7.3 48.4 0.1 4.9-0.3 9.6-2.6 14-0.4 0.8-1.1 1.7-0.7 2.9 1.8-1.4 3.5-2.7 5.1-3.9-0.2 1.2-0.8 1.9-1.4 2.6-2.7 3.5-5.5 7-6.1 11.7-0.2 1.5-0.3 3.2 1.1 4.1s2.5-0.4 3.5-1.1c2.8-1.9 5.3-4.2 8.6-5.8-5.6 10.1-3.8 19.9 4.7 25.6-2.3-4.9-3.7-9.8-1.8-15.3 0.2 0.4 0.2 0.5 0.2 0.6 0 0.8 0 1.7 0.1 2.5 1 7.3 3 14.1 9.2 18.8 15.1 11.3 32.1 17.3 50.9 17 11.9-0.2 23.8 0.4 35.8-1-1.4 1.3-3.2 0.7-5 1.4 3.3 0.7 6.3-0.3 9.2-0.1-3.7 1.4-7.8 2-12.2 1.9zm204.9-11.3c1.5 0.8 3 0.8 4.5 0.9 10.9 0.5 21.5-1 31.7-4.8 9.6-3.6 18.9-7.7 25.5-16.3 1.3-1.7 1.8-3.4 1.9-5.4 0.3-3.2-0.6-6.4-1-10.4 2.5 4.9 2.8 9.5 2.9 14.5 6.1-7.2 6.8-14.6 2.8-22.7 0.7 0.5 1.1 1 1.5 1.5 2 2.8 3.9 5.5 6 8.3 0.4 0.6 1 1.3 1.8 1.1 1-0.3 0.8-1.4 0.9-2.2 0.3-3-1-5.5-2.4-8-1.5-2.7-3.1-5.3-3.9-8.4 1.8 2.2 3.5 4.4 5.4 6.7 0.7-1.6 0.1-2.8-0.3-4-2.3-6.5-3.1-13.2-4.1-20-1.7-12-5.3-23.4-10.4-34.4-1-2.2-1-1.4-2.8-1.2-3.5 0.4-6.4 2.7-9.9 3-3.7 0.3-6.1-1-7.8-4.4-0.7-1.5-1.1-3-1.4-4.6-1-4.4-0.8-9.1-2.2-13.4-0.5-1.5-0.5-3.5-1.5-4.5-1.1-1.2-3-0.2-4.5 0.1-0.7 0.1-1.6-0.4-2.4-0.6-1.9-0.3-0.4 1.2-0.9 1.8-0.9-1.6-2.3-2.1-3.7-2.5-4.4-1.5-6.5-5.2-5.5-9.8 0.5-2.4 1.8-4.3 3-6.4-0.6-0.2-1.1-0.5-1.6-0.7-5.8-2-11.6-4-17.1-6.7-4.8-2.3-10.1-3-15.5-1.8-3.4 0.8-6 2.4-7.1 4.9 4.4-2.9 9.2-3.6 14.2-2.9-0.4 0.2-0.9 0.2-1.3 0.3-4.5 1-8.8 2.4-11.4 6.7-0.8 1.3-1.1 2.6-0.3 4s2.1 1.9 3.6 1.8c0.7 0 1.5-0.2 2.2-0.4 4.8-0.9 9.6-1.9 14.6-1.4-5.3 1.1-10.3 3.1-15.5 4.5-5 1.3-8.4-1.4-8.3-6.6 0-0.9 0-1.6-0.7-2.3-2-1.8-1.4-4-0.4-5.9 1.1-2 3-3.3 5.6-4.1-3.8-0.4-7-0.5-10.2 0.2-19.8 4.1-35.3 14.5-47 30.9-3.9 5.5-6.9 11.5-10.5 17.2-1.6 2.5-2.4 6.3-7 5.4 0.4 1 1.4 0.6 1.4 1.4-0.6 0.7-1.4 0.3-2.1 0.4-3.6 0.6-6.7 2-9.1 4.7-0.7 0.8-1.5 1.6-1 2.7 0.5 1.2 1.7 1 2.7 0.8 0.9-0.2 1.8-0.4 2.8-0.6 2.5-0.5 5-1.2 8.5-1.1-6.9 2.7-11.2 6.9-13 13.4-1.8 6.6-1.2 13.1 0.8 19.6 0.5 1.6 1.6 2.5 3.4 2.8-0.3-2.7-1-5.2-0.9-8.6 0.2 1 0.2 1.3 0.3 1.6 1.2 3.4 0.7 7.5 4.9 9.7 15.2 8.1 26.7 20.2 35.3 34.9 2.9 5 6.9 7.8 11.8 10 2.8 1.2 5.6 2.4 8.3 3.6-4.5-0.5-8.7-2-12.9-3.3 5.9 3.9 12.3 6.2 19.2 7.1 6 0.8 12.1 0.6 18.1 1.7 14.8 2.8 29.2 1.6 43.3-3.4 3.9-1.4 7.7-3.2 11.6-4.9-13.1 8.2-27.6 10.7-42.9 10.5zm-148.7 50.7c5.2-2 7.3-5.9 7.6-11.1 0.1-2.2-0.6-3.3-3-3.3-3-0.1-5.7 1.2-8.9 1.6 2.9-2.4 5.7-3.4 9.6-3.9 0.6-0.1 1.5 0.5 1.7-0.8 0.5-3.9-3.5-8.9-7.4-9.4-3.3-0.4-6.5 0.4-10.2 1.8 1.9-2 3.8-2.7 5.6-3.5s3.8-0.4 5.8-1c-4.2-4.1-9-5-14.4-3.9-6.2 1.3-12.2 3.4-18.6 3.7-8.7 0.4-16.9-1.9-24.9-4.7-6.5-2.2-13-4.1-20-3.8-9.3 0.4-12.7 3.8-13 13.1-0.1 2.9 0 5.7 0 8.8-1.6-0.9-1.3-2.6-2.9-3.6-0.3 4-1.5 7.5-3.4 10.7-1.8 3.2-3.9 6.3-7 8.5 3.5-5.5 7.8-10.6 9.2-17.3-5.6 11.8-16.2 18.5-26 26-6.3 4.8-12.2 10.1-16.3 16.9-14.1 23.1-13.9 46.6-1.5 70.4 0.4 0.8 1.4 1.5 1.2 2.7-4.8-3.3-7.8-8.1-10.9-13.3-2.4 11.8-3 23.3-2.4 34.8 0.3 5.8 1.6 11.4 4.5 16.6 1.8 3.3 3.4 3.5 6.2 0.9 1.6-1.4 2.5-3.3 3.3-5.2 0.2-0.5 0-1.3 1.1-1.4-0.1 3.9-1.2 7.3-4.3 9.8-0.6 0.5-1.6 0.7-0.7 1.9 3.9 5.3 12.5 4.9 15.8-0.8 1.4-2.5 1.8-5.3 2.5-8.4 1.3 2.6 1 4.9 0.5 7.2-0.6 2.3-1.9 4.1-3.1 6.2 7.5-0.7 8.2-1.3 14.2-12.2 0.5 2.1-0.5 3.9-0.6 5.9 6.7-7.2 8.9-16 9.5-25.8-8 2.8-15.5 2.2-22.7-1.6-6.4-3.3-15.5-11.9-16.4-15.6 3.1 3.7 6.5 6.9 10.4 9.4 11.7 7.5 22.7 6.5 32.8-3 8.3-7.8 12.1-17.7 12.9-28.8 1.3-17-1.7-33.1-10.2-48.1l-1.5-2.7c5.8 5.2 9.3 11.9 12 19 0.9-0.9 1-2.1 1.3-3.2 2.4-8.4 6.1-16 12.1-22.6 3.2-3.5 3.1-3.6-1-6.1-4.3-2.7-8.1-6-10.8-10.3 12.7 9.6 27 14.1 42.8 14.1 15.9 0 30.1-4.6 43.1-14.3-1.6-1-2.5 0.4-3.6-0.3zm-30.5 19.8c-11.2 0.6-22.1 0.1-32.4-4.3-1.7-0.7-2.6-0.6-3.8 0.7-7.7 8.4-12.6 18.1-15.1 29.2-0.3 1.1-0.4 2.3 0 3.4 1.3 4.1 2 8.3 2.4 12.5 1.2 11.4 0.5 22.7-4.8 33.2-0.8 1.6-0.7 2.2 1.1 2.8 11 3.5 22.1 4 33.3 0.9 28.6-8 48-28.8 48.2-60.6 0-1-0.2-1.8-1-2.5-5.5-4.9-9.6-10.9-13.2-17.3-0.8-1.4-1.6-1.5-3-1-3 1.1-6.1 1.9-9 3.5s-6 2-9.4 1.6c2.3-0.8 4.5-1.5 6.7-2.1zm176.3 69.7c-8.4-9.5-11.6-20.1-9.2-32.3 0.1-0.6 0-1.3-0.1-2-2-7.4-0.4-14.5 3.9-20.2 3.4-4.6 3.3-8.3 0.9-12.8-0.4-0.8-0.7-1.8-1.1-2.6-3.1-7.8-7.1-15-12.9-21.2-1.1-1.2-2.2-1.8-4.1-1.6-6.8 0.6-13.6 0.8-20.3-0.8-0.6-0.1-1.4-0.7-1.8 0.1-0.3 0.7-0.2 1.7 0.1 2.5 0.4 0.9 1.5 0.6 2.3 0.7 5.3 0.5 10.5 0.1 15.8-0.7-0.4 0.3-0.8 0.6-1.3 0.7-5.2 0.9-10.4 1.8-15.7 1.3-0.7-0.1-1.7-0.4-1.8 0.7-0.2 1.3 1.1 1.1 1.8 1.3 1.3 0.2 2.6 0.3 4 0.4-0.9 1.1-2.1 1.1-3.2 1-2.5-0.2-3.5 1.1-4.1 3.3-0.8 3.4-2 6.7-3.6 9.8-6.1 12.4-15.2 21.8-27.7 27.9-2 1-2.6 2-2.1 4.4 2.6 13.1 10.1 22.9 20.7 30.5 14 9.9 29.8 14 47 12.6 4.2-0.5 8.4-1.2 12.5-3zm56-48.8c3 4.7 3 10.4 5.2 15.9 0.2-7.3-1.1-13.7-3.1-20-4.8-14.9-18-24.4-33.2-23.8-3.8 0.1-7.2 1.5-10.8 2.6 8.8-6.4 18.4-6.8 28.5-3.4-2.7-2.6-6.1-4.2-9.2-6.1-11.8-7.4-22-16.1-24.5-30.8-0.3-1.7-2.3-2.4-1.9-4 0.7-3.2 0.2-6.4-0.1-9.6-0.6-6-3.5-9.3-9.4-10.4-2.1-0.4-4.3-0.6-6.5-0.5-13.7 0.7-27-1.1-39.5-7.1-3.7-1.7-7.2-3.7-11.2-4.8-5.7-1.6-11.3 0.3-13.6 4.6 3.4 0.4 6.4 1.4 9.4 4.2-1.8-0.5-2.9-0.9-4-1.1-6.7-1.6-9.5 0.2-10.8 7-0.3 1.5 0 2 1.6 2.1 3.3 0.4 6.4 1.5 8.8 4-2.5-0.7-5-1.4-7.6-1.7-2.1-0.3-3.3 0.3-2.9 2.8 0.7 4.6 2.3 8.6 6.6 10.9 2.1 1.1 4.1 2.1 6.2 3.2-2.2 0.7-4.2-0.6-6.4-1 3.6 6 15.4 13.4 28.7 16.8 14.9 3.8 29.5 3.7 42.9-5.6-4.2 5.7-9.9 9-16.8 10.9 9.2 9.1 14 20.2 17.4 32.4 6.8-6.9 14.8-9.5 24-8.1 12.8 2 21.8 9.3 28.7 19.9 1.8 2.7 3.4 5.5 5.2 8.6-0.3-3.1-1.1-5.4-1.7-7.9zm-268.5-257.8c0.3-13.8-0.2-27.5-2.8-41-3.5-18.9-9.4-36.8-19.7-53.1-4.1-6.4-8.9-12.2-15.3-16.6-12.4-8.6-23-4.7-26.9 9.9-2.6 9.5-2.4 19.2-0.9 28.7 4.6 28.9 19 52.9 38.2 74.3 0.5 0.6 1 2.1 2.1 1.1 0.9-0.9-0.2-1.7-0.8-2.4-1.9-2.6-3.9-5.1-5.8-7.7-1.6-2.3-3.1-4.7-4.6-7 0.6-0.2 0.8-0.1 0.9 0.1 2.7 3.7 5.3 7.3 8 11 3.6 5 3.6 5 9.3 3.1 4.9-1.6 4.9-1.6 2.8-6.4-5.1-12-11.1-23.6-15.7-35.8-5.1-13.5-8.5-27.2-8.1-41.8 0.1-4.8 0.9-9.4 3.1-14.3 0.8 2.8-0.5 5.1 1.4 7.1 10 10.7 15.3 23.8 19.4 37.5 4.9 16.4 7 33.3 6.2 50.5 0 0.9-0.4 2 1.2 1.9 2.7-0.4 5.2 0.6 8 0.9zm285.9 33c0.7 1.1 1.4 2.1 2 3.1 0.7 1.1 1.8 2.2 1.6 3.6-0.3 3.4 1.2 2.6 3.3 1.9 12.9-4.7 25-10.9 35.8-19.3 9.3-7.2 18-15.2 23.1-26.1 3.4-7.3 3.4-14.8-1.3-21.6-7.2-10.4-17.6-13.6-29.6-12-11.7 1.5-20.9 7.8-29.3 15.6-11 10.3-19.1 22.7-25.9 36-0.6 1.2-0.4 2.1 0.1 3.2 1.2 2.3 2.3 4.6 2.4 7.2 0 0.5-0.1 1.3 0.6 1.4 2.1 0.3 4.2 1.2 5.4-1.8 0.4-1.2 1.6-2.1 2.4-3.1 12.1-16.1 27.4-28.1 45.9-36.1 5.8-2.5 11.9-3.8 18.3-2.9 5.9 0.9 8.4 5.5 5.4 9.6 0-1 0.1-2 0-3-0.4-2.8-2.9-2.5-4.8-3-1.8-0.5-1.4 1.4-1.7 2.2-1.8 5.3-4.6 9.9-8.2 14.1-12.5 14.2-27.6 24.4-45.5 31zm-277 310.6c25.6-1.9 44.1-28.4 47.2-46.6-15.2 16.8-34.1 25.4-57.1 25.4 1.8 2.2 4.2 3.1 6.6 4.6-4.8-0.1-7-4.9-11.7-5.6 2.4 4.3 6.1 6.2 10.3 8.6-4.6-1-7.8-2.7-10-6.1-1-1.5-1.9-3.4-4.5-2.8 1.3 3.3 3.5 6 5.6 8.8-3.7-1.9-4.8-6-7.4-8.9 0.1 2.7 1.2 5.1 2.4 7.6-1.1-0.5-1.5-1.3-1.8-2-0.8-1.7-1.5-3.5-2.2-5.2-0.4-1.1-1.2-1.7-2.4-1.5-1.3 0.2-0.7 1.3-0.8 2.1-0.2 1.3-0.3 2.6-0.3 4-0.7 12-0.6 24 3.1 35.6 2.2 6.9 5.7 13 12.2 16.9 5.1 3 8.6 1 9-4.9 0.1-1.3 0-2.6 0-4.5 2.8 4.6 2.2 8.4-0.6 12.1 11.9 2.2 15.2-6.1 13.8-15.3 3.2 3.8 2.6 7.8 1 12.3 4.5-3.4 6.6-7.4 7.3-12.3 0.9-6.3 0-12.4-1.2-18.6-0.5-2.6-1.3-3.4-4.1-2.6-4.9 1.3-9.7 0.6-14.4-1.1zm263.3-49.9c0-5.1-0.8-10-2.3-14.8-4.2-14-11-26.2-24.2-33.7-15.3-8.8-32.4-1.9-37.7 15-1.5 5-1.3 9.6 1 14.3 5.8 11.4 12.9 22 20.8 32.1 4.3 5.4 9.4 10.1 15.9 12.9 7.9 3.5 15.7 1.3 20.9-5.6 4.7-6.1 5.6-13 5.6-20.2zm29.8-34.7c-4.7 3.1-9.2 5.8-15.1 7.5 2.2-1.5 3.7-2.4 5.1-3.5 7.7-6.2 12.7-14 12.7-24.2 0-2.3-0.7-4.5-2.1-6.3-0.7-0.9-1.7-1.5-3-1.4-1.3 0.2-1.2 1.4-1.4 2.2-0.9 3.3-2.6 6.1-4.9 8.5-2.8 2.8-6 5-9.9 6.1 3.3-2.8 6.5-5.5 8.9-9.1 6-9.2 1.2-21.2-9.1-22.8-6.8-1.1-15 3.9-18.7 11-1.7 3.2-1.7 5.6 0.9 8.6 7.6 8.6 11.7 18.8 12.7 30.3 0.5 5.6-0.1 11.1-0.9 16.6-0.1 0.9-0.7 2.1 0.9 1.9 4.2-0.5 8.1-2 11.6-5.3-5.7 0.4-7.2 0.2-8.9-1.2 10.6-1.3 20.2-9.7 21.2-18.9zm-388.6-15.6c-6.1-2.7-10-7.3-11.5-13.9-0.6-2.7-2-3.2-4.3-1.5-2.1 1.6-3.5 3.8-4.1 6.3-2.9 11.4-0.9 21.5 7.9 29.8 1.3 1.3 2.8 2.4 4.5 3.9-2.6-0.1-4.5-1.3-6.5-1.7-1-0.2-2.3-1.6-3-0.3-0.6 1 0.1 2.4 0.9 3.4 0.5 0.8 1.2 1.4 1.9 2.1 3.6 3.4 8.1 4.7 12.9 5.3 2.2 0.3 2.7-0.5 2.8-2.5 0.9-17.3 7.3-32.3 19.6-44.6 3.9-3.9 3.8-4 0.8-8.7-0.2-0.3-0.4-0.6-0.6-1-4.8-6.7-14.9-8.5-22.1-3.8-7.1 4.6-8.9 13.5-4.3 21 1.3 2.2 3.3 4.1 5.1 6.2zm145-90.6c-0.1 2 1.4 2.7 2.6 3.4 3.4 2 7 3.8 10.8 4.9 23.7 6.8 46.5 4.6 68.1-7.7 1.4-0.8 2.9-1.4 4.4-1.9 2.6-0.9 5.5-1.4 7.7-3.5 0.5-0.4 1.3-0.8 0.7-1.5-1.5-1.8-2.1-4.1-4.2-5.8-2 4.2-4.8 7.4-8.4 10-8 5.8-17 1.8-18.2-8-0.3-2.3 0.3-4.5 1-7-5.7 3-11.5 4.6-17.9 5.2 0.7 1.2 1.3 2.1 1.9 3.1 3.5 6 1.5 13.6-4.1 16.1-4.9 2.2-10.7 1.1-13.5-2.6s-2.2-8.9 1.5-13.3c1.2-1.5 2.9-2.3 4.8-3.4-0.7-0.2-1.2-0.3-1.6-0.3-7.4-0.9-14.1-3.3-20.2-7.7-0.4-0.3-0.8-0.5-1.2-0.6-0.5-0.2-1-0.2-1.3 0.2-0.4 0.5-0.3 1 0.1 1.5 0.5 0.7 1.1 1.3 1.6 2 2.9 4.6 2.1 11.4-2 15.7-3.5 3.7-7 4.1-12.6 1.2zm232.5-133.4c-2.3-0.3-4.7-0.7-7-0.4-2.2 0.3-3.3 1.8-2.7 3.6 0.2 0.5-0.1 0.3-0.2 0.3-2.9 0.3-3.2 2.9-4.8 4.6 6.4 2.8 11.3 2.9 12.8 0.5-0.3-0.9-1.5 0.2-1.8-1 1.6-1.2 3.2 0.6 5-0.2 5.6-2.6 10.8-5.7 16.2-8.7 1.2-0.6 1.1-1.3 0.2-2.4 1.7 1.4 2.9 0.5 3.9-0.5 1.9-2 4.2-3.3 6.3-5 1.7-1.3 3.4-2.3-0.6-3.8 2.3 0.1 3.8 1.8 5.2-0.1 2.1-3 5.3-5.1 7.3-8.2 2.3-3.4 4.5-6.9 5.7-10.9 0.4-1.3 0.2-2.1-1.6-1.7-3.9 0.9-8 0.8-11.6 3-1.8 1.1-3.9 1.9-5.9 2.7-3.9 1.7-7.2 4.3-11 6.3-1.1 0.6-0.7 1.2 0.3 1.7-3.7-0.6-5 2.9-8 4.2 1 0.5 1.6 0.8 2.3 1.2-2.8-0.9-4.7 0.3-6.4 2.5 1.3 0.3 2.4 0.6 4 1-3 0.3-6.1-1.2-7.4 2.6 2.7 0.6 5.3 1.1 7.9 1.6-2.2 0-4.4-0.2-6.4-0.9-1.8-0.6-2.9 0-4 1.1-1.3 1.3-2.2 3-3.9 3.9-0.4 0.2-0.8 1-0.8 1.4 0.1 0.6 0.9 0.6 1.4 0.7 1.9 0.4 3.8-0.2 5.6 0.9zm-129.3 193c-3.2 3.4-6.6 6-10.1 8.5-3.6 2.5-7.3 4.7-11.2 6.6-16.2 7.8-33.3 10.2-51.1 8.9-8.7-0.6-16.9-2.8-24.7-6.7-1.3-0.7-2.3-1.5-3.8-0.4-1.2 0.9-3.7 1.1-3.9 2-0.4 2.1 1.7 3.3 3.2 4.5 0.9 0.7 1.9 1.3 2.9 1.8 3.5 1.6 7 3.4 10.7 4.4 29 8 55.9 3.8 80.6-13.9 5.5-3.8 7.1-9.1 7.4-15.7zm-97.1 14.8c30.8 15.4 76 4.7 96-16.9-2.2-1.1-4.4-2.1-6.6-3.3-1-0.6-1.6-0.5-2.4 0.3-2 1.9-4.3 3.4-6.7 4.7-22.3 11.6-45.5 15.9-70.1 9-0.8-0.2-1.6-0.5-2.3 0.3-2.2 2.3-4.8 4.1-7.9 5.9zm-11.9-59.9c-1.2 3.4-2 6.8-2.8 10.2-0.4 1.8 0 1.8 1.6 1.5 9.8-2.1 18.2 1.6 23.3 10 1 1.6 2.2 2.4 4 2.8 9 1.8 18 2 27.1 1.5 8.2-0.5 16.1-2.2 23.8-4.9 1.7-0.6 2-1.1 1.3-2.9-1.2-2.6-1.8-5.4-2.1-8.2-0.1-1.3-0.4-1.9-2-1.4-10 3.4-20.4 4.7-31 4.7-15.7 0.1-30.3-3.1-43.2-13.3zm80.5 22.2c-1.2-0.2-1.7 0.5-2.4 0.7-0.8 0.3-1.6 0.7-2.4 1-16 5.7-32.4 5.9-48.9 3.2-1.5-0.2-2.3-0.6-1.7 1.6 1.9 7.2 2.3 14.4-2 21-0.5 0.7-0.3 1.2 0.5 1.5 5.3 2 10.9 2.7 16.7 3-4.7-7.9-4.5-14.1 0.5-18.4 4-3.4 9.3-3.4 13.5 0 2.3 1.8 3.4 4.3 3.9 7.1 0.7 4.2-0.6 8-3.6 11.3 9.5-1.6 18.8-3.5 27.7-7.5-12-4.1-12.7-14-1.8-24.5zm99.3-17.6c6.6 6 13.7 11.3 21.2 16 9.8 6.1 20.1 9.8 31.6 4.9 0.2-0.1 0.4-0.1 0.5-0.1 4 1.8 8.6 0.5 12.6 2.5 1 0.5 1.9 0 2.6-0.6 3.7-3.1 6.7-6.8 9.4-10.2-23.1-1.2-45.5-6.1-67.5-13 1.4 1 3.3 1.3 5.1 3-5-1.2-8.7-4.7-13.8-3.5 2.1 2.3 4.8 3.5 7.4 5.2-3.7-0.3-6-2.9-9.1-4.2zm-98.4-12.6c-10.8 4.7-21.3 7.2-32.4 7.8-14.1 0.7-27.5-1.2-40.1-7.8-1.6-0.8-3.2-3.1-4.8-2.3-1.3 0.7-1.5 3.3-2.5 4.9-1.1 1.9-0.4 3.1 1.1 4.3 3.7 2.9 7.7 5.1 12 6.8 11.9 4.9 24.4 5.8 37.1 4.9 7.6-0.6 15.2-2 22.4-4.6 0.8-0.3 1.8-0.3 2-1.6 0.7-4.2 2.4-8.2 5.2-12.4zm135.7 9.2c-0.4-1.1 1.2-2.2 0.1-2.7-1.4-0.7-3-0.9-4.6-1.1-0.2 0-1.1 1.2 0 1.6 1 0.3 0.6 0.6 0.3 1.1-0.4 0.5-0.9 0.9-1.4 0.7-0.8-0.4-0.7-1.2-0.6-2 0.2-1.8-0.3-2.8-2.4-2-1.1 0.5-1.9 1.2-2.6 2.1-0.9 1.1-1.5 2.6-3 3.2-0.7-1.2 1.3-1.9 0.4-3.2-2.2 1.3-4.6 2.2-7.6 2.5 8.8 3.7 17.3 4.3 25.9 1.8 8.3-2.3 16.5-4.5 25.2-2.8 2.9 0.6 4.6-0.6 5.5-3.3 0.8-2.3 2-4.5 2.7-6.8 1.5-5.2 3.6-10.3 4.3-15.9-7.7 1.8-14.6 4.9-21.4 8.1-3 1.4-6.2 2.3-9.1 3.9-0.8 0.5-1.2 1.7-2.1 1.7-4.8-0.2-8.7 4.4-7.2 8.7 0.3 0.8 1 0.9 1.6 0.9 3.9-0.3 7.8-0.4 11.7-1 2.5-0.4 2.8-0.7 5.4 0-3.9 2.3-9.3 0.1-12.7 4.6-0.3-3.9-1.6-3.8-8.4-0.1zm-23.7-153.7c1.6-1.5 3.2-2.5 3.7-4.5 1.6-7.4 1.3-14.8-1.8-21.8-1.9-4.3-4.2-4.9-8.4-2.6-6.8 3.7-11.7 9.5-16 15.7-3.5 5-2.6 7.7 3 10.1 4.2 1.8 8.7 3.2 13 4.7 1 0.4 2.1 1.2 3.2 0.2s0.8-2.2 0.5-3.4c-1.2-4.6-3.9-8.4-6.5-12.3 4.6 3.5 7.2 8.3 9.3 13.9zm-184.9 224.2c4.3 6.3 9.4 10.3 16.1 12.5 6.4 2.2 13 3.2 19.7 3.6 18.8 1 36.2-3.2 51.9-13.8 4.7-3.2 6.9-7.8 9-13.2-27.4 23.4-69.7 26.1-96.7 10.9zm198.6-205.5c1.3 0.5 2.5 0.8 3.4 1.4 1 0.6 2.8-0.1 2.9 1.2 0.2 1.7 1.3 2.6 2.3 3.7 0.5 0.5 1.4 1.1 0.4 1.8-0.9 0.6-1.1-0.5-1.4-0.9-2.1-2.8-5-4.1-8.6-5.5 4.9 9 5.3 10.3 4.8 13.9-1.4-4.1-3.5-7.6-6.5-11.4 0.5 2.2 0.9 3.7 1.1 5.1 0.8 4.4 1.5 8.8 2.4 13.1 0.8 3.9 2.9 5.5 6.1 4.5 7.3-2.3 13.2-6.6 17.4-12.9 3.4-5.1 1.6-11-3.9-14-3.5-1.9-7.3-3-11.4-3.2-3.4-0.2-6.1 1.1-9 3.2zm-32.4-96.7c-5.6 3.8-11.1 7.8-16.9 11.4-2.9 1.8-4.2 4.4-5 7.5-1.4 5.4-2.5 10.9-3.5 16.3-0.8 4.2-0.5 4.4 3 3.4 0.1 0 0.2 0.2 0.6 0.5-6 1.1-4.1 5.8-4.6 9.4 1.8-0.3 2.1-2.6 4.3-3-2.4 2.5-5.7 4.2-4.1 8.2 0.1 0.3-0.3 0.7-0.3 1.1-0.1 1.2-0.1 2.5 0.7 3.6 5.3-15.9 14.2-29.9 21.4-45.6-3.2 2-5.5 3.9-8.4 4.7 2.8-2.6 6.8-3.6 9-6.6 2.2-3.1 3.2-6.9 3.8-10.9zm-126.6 201.8c4.6 0.7 9.2-0.6 13.8-2 6.8-2 12.8-5.5 17.8-10.7 1.2-1.3 1.6-2.2-0.3-3.2-1.3-0.7-2.4-2.3-3.7-2.4-0.8-0.1-1.7 1.9-2.6 3-0.3 0.4-0.6 0.7-1 1-10.1 8.9-28.8 9.9-39.8 2.3-1.7-1.2-2.8-4-4.6-3.5s-3 3-4.6 4.4c-2.2 1.8-1.5 2.8 0.5 4.2 7.4 4.6 15.5 6.7 24.5 6.9zm124 35.4c3 9.8 11.8 15.4 16.9 23.6-5-4.6-9.7-9.6-14.1-14.8 2.5 8.5 6.6 16.4 9.9 24.5 1.4 3.5 4.1 5.8 6.8 8.1 1.1 0.9 2.4 2.6 4.5 1.4 3.5-2 6.8-4.2 9.9-7-13.4-10.1-23.3-23.3-33.9-35.8zm25.1-139.6c5.5-0.7 9.9-3.6 13.8-7.2 1.4-1.3 1.6-3.2 0.5-5.1-1.7-2.9-3.4-5.8-6.3-7.7-2-1.4-3.9-1.8-6-0.6-3.3 1.9-6.3 4.1-8.9 6.9-1.7 1.9-3 4.1-3.5 6.7-0.4 2.2 0.2 4 2.3 5.2 2.5 1.4 5.4 1 8.1 1.8zm-147.1 94.8c1.6-0.1 3.8-0.2 5.9-0.5 6.4-1.1 12.3-3.1 16.5-8.4 0.5-0.6 1.6-1.2 0.7-2.1-1.4-1.5-3.2-2.8-5.1-3.4-1.1-0.4-0.8 1.9-1.8 2.6-0.2 0.1-0.4 0.4-0.6 0.6-6.1 6.3-19.7 6.4-26 0.3-1-1-1.4-3.2-3-2.9-1.3 0.3-2.4 1.7-3.6 2.6-0.4 0.3-0.7 0.7-1.1 0.9-1.9 1.2-1.6 2.3-0.1 3.8 4.9 4.7 11 6.2 18.2 6.5zm184.9-80c-2.1 3.2-4.5 5.6-7.1 7.8-0.9 0.7-0.7 1.3-0.2 2.2 1.2 2 2.5 4 3.3 6.2 3.1 8.1 6.3 16.1 8.1 24.6 0.5 2.6 0.6 5.3 1.8 7.8 1.7-16.6 1.1-32.7-5.9-48.6zm-142.2 197.2c-10.1 5.9-20.9 9.5-32.4 10.8-11.6 1.3-23 0.8-34.3-2.6 24.2 13.6 52.1 7.1 66.7-8.2zm-18.6-112.8c4.3-1.2 7.4 0.6 10 3.4s3.1 6.6 3.9 10.5c2.2-2.6 3.9-4.9 5.4-7.4 0.6-1 0.7-1.8 0-2.8-2.8-3.7-5.9-7.2-9.3-10.4-0.6-0.6-1.3-1.1-2.1-0.1-2.2 2.7-4.9 4.8-7.9 6.8zm-21.5-13.2c4.3 0.1 8.2-0.9 11.4-4 0.8-0.8 2.1-1.9 0.5-3-1.2-0.8-2.3-2.5-4.1-0.3-3.7 4.3-12.3 3.8-15.6-0.6-1.9-2.6-3.2 0.1-4.5 0.7-1.7 0.8-0.3 1.9 0.4 2.7 3.1 3.4 7.3 4.4 11.9 4.5zm113.4-108.9c-1-1.8-1.5-3.6-1.2-5.5 0.2-1.3-0.3-1.8-1.5-2.2-4.2-1.5-8.5-2-12.8-1.6-1.9 0.2-4 0.5-5.5 2.4 3.8 0.9 7.3 1.7 10.8 2.7 3.6 0.8 7.1 1.9 10.2 4.2zm7.4 297.3c-0.6-1.2-1.4-2.1-2.5-2.5-1.4-0.5-2.9-1-3.9-2.1-5.1-5-8.7-10.8-9.7-18.1-0.3-2.2-1.1-4.1-2.7-5.9 0.1 14.6 8.1 25.4 18.8 28.6zm-120.8-199.4c-1.5 0.1-3.1-0.1-4.7 0.5-1.2 0.4-1.7 0.8-0.6 1.9 2.4 2.5 8.2 2.7 10.7 0.4 1.2-1.1 1.2-1.8-0.5-2.3-1.6-0.5-3.2-0.5-4.9-0.5zm-5.2 93.2c-1.9 0.4-4.5 0.1-4.5 2.7 0 1.9 1.8 3.7 3.4 4.5 1 0.5 1.5-1.5 2.4-2.3 0.6-0.6 1.1-1.3 1.7-1.8 1.6-1.3 1.1-2.1-0.5-2.7-0.9-0.2-1.7-0.3-2.5-0.4zm6.3-51.6c-0.4-1 0.4-2.9-1.5-2.3-2.2 0.7-5.5-0.7-6.4 2.6-0.3 1.2 3.4 4.1 5 4 2.6-0.3 2.6-2.4 2.9-4.3zm-5.5 60.6c1.5 0.9 3 0.7 4.5 0.9 3.4 0.5 4-0.2 2.9-3.6-0.3-0.8-0.7-1.5-1.1-2.2-0.8-1.5-1.7-1.4-2.8-0.1-1.4 1.5-2.5 3.1-3.5 5zm109.6 74.1c1.6 8.3 8.4 18.5 12.8 19.5-4.9-5.8-8.3-12.6-12.8-19.5zm-72.5-89.1c0-1.2-3.2-5.1-3.8-4.7-1.5 0.7-2.7 1.8-3.2 3.3-0.3 0.9 3.7 5 4.5 4.7 1.5-0.6 1.8-2.2 2.5-3.3zm-40.7-48.5c-0.1-2.1-1.5-3.8-2.8-3.7-1.7 0.1-4.1 3.1-4 5 0.1 2.4 2.4 1.9 3.4 1.8 1.7-0.1 3.3-1.2 3.4-3.1zm30.2 53.3c-0.1 2.9 0.5 3.4 2.9 2.7 1.3-0.4 3.2 0 3.7-1.5 0.6-1.6-1.5-2.1-2.3-3.2-0.1-0.2-0.2-0.3-0.4-0.4-0.7-0.7-1.3-2.1-2.3-1.8-1.2 0.3-1.1 1.8-1.4 2.9-0.1 0.5-0.2 1.1-0.2 1.3zm-24.7-44.5c-1.9-1.2-3.7-2.2-5.5-3.5-1-0.7-1.6-0.4-2.1 0.4-0.7 1.1-1.7 2.3-1.1 3.6 0.5 1.3 2.1 1.4 3.4 1.4 2 0.1 3.8-0.3 5.3-1.9zm1-12.8c-0.1-1.9-0.9-3.1-3-2.8-1.5 0.2-3.6 0.1-3.4 2.3 0.1 1.5 0.6 3.6 2.2 4.1 1.5 0.5 4.2-2.2 4.2-3.6zm29 6.8c2.2 0 5.7-1.7 5.3-2.9-0.8-2.1-3.1-3.1-4.8-3.2-2.4-0.1-1.7 2.8-2.3 4.4-0.5 1.5 0.7 1.7 1.8 1.7zm4 60.6c2.1-0.1 4-1.7 3.9-3.2-0.1-1.2-3.1-4.5-4-4-2 1.1-1.5 3.4-2 5.2-0.3 1.7 1 1.9 2.1 2zm-43.3-4.8c-1 0.9-1.2 2.1-1.6 3.3-0.4 1.3-0.9 2.8 0.4 3.6 1.2 0.7 2.9 0.9 4.3 0.1 1.3-0.7 1.8-1.6 0.6-2.9-1.2-1.4-2.5-2.7-3.7-4.1zm9.3 6.8c-1 0.2-2-0.4-2.5 0.6-0.4 0.9 0.5 1.5 1 2.2 0.5 0.6 1 1.2 1.6 1.6 0.9 0.6 1.6 1.9 2.9 1 1.2-0.8 2.2-2.1 2-3.5s-1.7-1.2-2.8-1.4c-0.8-0.2-1.6-0.4-2.2-0.5zm-38.1-60.8c1 0.2 1.9-0.6 1.7-2.1-0.2-1.8-0.6-4.1-2.9-4.1-2.1 0-2.4 2.2-2.5 3.8-0.1 2 1.5 2.3 3.7 2.4zm-159.2 125.4c1.8 2.3 4.3 3 6.7 4 0.7 0.3 1.7 1.2 2.2 0.3 0.4-0.9 0.2-2.2 0.1-3.3-0.1-1.3-1.2-1-1.9-1h-7.1zm163-127.2c0.6-0.7 1.1-1.3 1.6-1.9 1-1.3 2.1-2.8 1.5-4.3-0.5-1.2-2.5-0.6-3.8-1-1.5-0.4-2.2 0.4-1.6 1.9 0.7 1.8 1.5 3.4 2.3 5.3zm56.1-7.3c0.2 1.7 1 3.1 2 4.3 0.6 0.7 1.3 1.8 2.2 1.6 1-0.2 0.8-1.5 1-2.4 0.2-1.1 0.6-2.2 0.8-3.3 0.2-0.8 0.2-1.8-1-0.9-1.5 1.1-3.1 0.4-5 0.7zm100 42c0.8 7.3 4.2 15.1 7.6 17.4-2.6-6-5.1-11.7-7.6-17.4zm-121.7 34.9c-1.2-1.4-2.4-2.7-3.5-4-0.5-0.6-1.2-1.2-1.9-0.5-1 0.9-1.5 2.1-1.4 3.5 0.2 1.2 1.1 1.9 2.3 2.1 1.6 0.1 3.1-0.2 4.5-1.1zm169-62c-2.9 0.8-4.7 3-7.3 4.2 6.5 2.7 6.5 4.1 7.3-4.2zm-199.5-17.5c0-2.1-0.8-4.1-2.6-4.1-1.7 0-2.5 2.3-2.5 3.9 0 2.3 2.4 1.6 3.7 2 1.8 0.6 1.1-1.1 1.4-1.8zm71.2 60.1c-1.1-1.3-2.2-3.2-3.8-3.3-1.5-0.1-1.8 2.2-2.1 3.5-0.5 1.8 1.4 2.2 2.5 2.3 1.4 0 2.7-0.9 3.4-2.5zm7 4.2c-1.7-1-3.2-1.9-4.8-2.8-0.4 2.7-0.7 5.2-2 7.6 2.3-1.6 4.5-3.1 6.8-4.8zm-18.1-64.1c0.8-1.3 2.2-1.8 2.3-3.2 0.1-1.2-2.8-3.1-4.1-2.8-0.9 0.2-1.4 0.6-1 1.6 0.5 1.6 1.2 3.1 2.8 4.4zm-6.1 0.8c2.6 0 3.2-0.2 3.2-1.1 0-1-2.5-4.5-3.2-4.3-1.6 0.5-1.8 1.9-1.9 3.4-0.2 1.9 1 2 1.9 2zm5.4 62.9c-0.9 0.3-2.8 0-2.6 1.8 0.1 1.6 1.5 3.5 2.9 3.3 1.7-0.2 1.1-2.5 1.5-3.9 0.4-1.3-0.7-1.2-1.8-1.2zm6-61.8c-0.3-0.8-0.2-2.7-1.7-2.8-1-0.1-2.6 1.2-2.4 2.4 0.2 1.3 2 1.5 3.2 2 0.9 0.2 1.1-0.5 0.9-1.6zm-44 10.4c-0.6-0.9-1.9-0.6-2.7-1-1-0.5-1.2 0.2-1 1 0.2 1.3 0.4 3 1.9 3 1.1 0 1.1-1.7 1.8-3zm-48.2 16.6c0.4-1.6 0.7-2.9 1.1-4.6-1.9 1.3-4.6 1.9-1.1 4.6zm96.8 37.8c1.2-3.5 1.1-3.6-2-3.2 0.4 1.3 1.9 1.9 2 3.2zm-184.4 123.7c2.7 0.4 4.6-0.3 6.5-0.7 0.5-0.1 1-0.2 0.9-0.8-0.2-1-0.9-0.3-1.3-0.2-1.9 0.4-3.7 0.9-6.1 1.7z"/> <path d="m315.9 237c1.6-1.2 3.2-2.1 4.8-0.9 1.7 1.3 1.9 3.2 1.6 5.1-0.8 5.6-3.3 10.4-7.3 14.4-3.7 3.7-6.8 3.9-10.7 0.4-4.8-4.2-8.2-9.4-9.8-15.6 0-0.2-0.1-0.4-0.1-0.5-0.5-2.4-0.3-4.5 1.7-6.2 1.9-1.6 3.7-0.6 5.6 0.6 0.2-1.6 0.2-3 0.4-4.4 0.5-3.9 2.7-6.5 5.7-6.8 3.3-0.3 6.1 1.7 7.3 5.5 0.4 1.2 0.7 2.6 0.8 3.9s0 2.7 0 4.5zm-9.9 6.9c-0.2 0-0.4 0.1-0.5 0.1-1.1-1.9-2.1-3.7-3.2-5.6-0.9-1.6-2.4-3-4-2.4-1.8 0.7-1.2 2.8-0.7 4.2 1.8 5.8 5.2 10.7 9.5 14.9 1.8 1.8 3.4 1.4 4.9-0.1 3.9-3.9 6.5-8.6 7.5-14 0.2-1 0.3-2.3-0.7-2.8-0.9-0.4-1.6 0.8-2.2 1.5-1.9 2.1-2.9 4.9-4.8 7.8 0.5-3.8 1.1-7 1.4-10.2 0.3-2.9-0.1-5.7-1.1-8.4-0.6-1.5-1.6-3-3.5-2.9-1.9 0-2.7 1.6-3.2 3.1-0.8 2.2-0.9 4.4-0.5 6.7 0.1 2.7 0.6 5.4 1.1 8.1z"/> <path d="m281.5 202.1c1.2-1.4 2-2.7 3.6-3.3 3.2-1.2 5.7 0.1 6.1 3.6 0.7 5.4-4.5 13.3-9.7 14.9-1.7 0.5-3.3 0.2-4.5-0.8-4.7-3.9-7.4-8.8-7-15 0.1-2.4 1-4.4 3.6-5.1s4.4 0.6 5.9 2.4c0.7 0.9 1.2 2 2 3.3zm-0.3 5.4c-0.8-1.7-1.3-3-1.9-4.3s-1.5-2.4-2.6-3.3c-1.8-1.6-2.9-1.3-3.8 0.9-0.4 1.1-0.5 2.2-0.2 3.3 0.7 3.5 2.3 6.6 4.6 9.3 2 2.3 3.1 2.5 5.4 0.5 3.1-2.7 4.9-6.1 5.6-10.2 0.1-0.9 0.3-2.1-0.7-2.5-1-0.5-1.9 0.2-2.8 0.9-1.6 1.3-2.4 3.2-3.6 5.4z"/> <path d="m313.6 291.5c1.5-0.7 2.2-1.2 3-1.4 2-0.5 3.8 0 5.1 1.7 1.2 1.6 0.7 3.3-0.4 4.7-3.4 4.5-8.1 6.3-13.6 6.2-1.7-0.1-2.8-1.1-3.3-2.7-1.6-5.1-1.1-10.1 1.6-14.8 1.2-2.1 3.3-3 5.6-2.2 2.2 0.7 3 2.6 2.9 4.9 0 1.1 0 2.1-0.9 3.6zm-2.5 3.8c0-0.7 0-1.2 0.1-1.6 0.4-2.1 1.2-4.2 0.6-6.4-0.2-0.8-0.5-1.7-1.4-2-1-0.3-1.5 0.7-1.9 1.4-2.4 3.8-2.5 8-1.8 12.3 0.1 1 0.7 1.7 2 1.5 3.8-0.6 7.3-1.9 9.9-4.9 0.5-0.6 1.1-1.4 0.7-2.3-0.5-1.1-1.5-0.9-2.5-0.8-2.2 0.2-3.8 1.7-5.7 2.8z"/> <path d="m344.1 274.8c0 3.4-3.6 7.4-7.1 7.8-2.5 0.2-4.5-1.8-5.7-5.7-1.2-4-0.7-7.5 1.5-8.6 2-1 2.9 0.3 3.6 1.9 0.5 1.3 0.6 2.6 2.8 1.5 2.7-1.4 4.9 0.3 4.9 3.1zm-7.8 1.1c-0.2-1.7-0.4-3.3-1.3-4.6-0.3-0.4-0.6-0.9-1.1-0.6-0.3 0.1-0.5 0.6-0.5 0.9-0.4 2.1-0.1 4.1 0.7 6.1 0.5 1.2 1 2.6 2.4 2.9 1.6 0.3 2.6-0.9 3.4-2.1 0.9-1.4 3-2.9 1.2-4.6-2-1.9-3 0.7-4.2 1.7-0.1 0-0.2 0.1-0.6 0.3z"/> <path d="m263.8 267.7c1.6-5.7 4.4-10.9 8.4-15.4 0.5-0.6 1.2-1.1 2-0.5 1 0.7 0.8 1.6 0.4 2.5-1.4 2.7-3.3 5.1-5.2 7.4-1.9 2-3.8 4-5.6 6z"/> <path d="m267.6 271.4c3.7-3.8 8-6.9 12.9-8.9 0.8-0.3 2-0.5 2.5 0.6 0.5 1-0.4 1.6-1.1 2-4.3 3.1-8.9 5.4-14.3 6.3z"/> <path d="m361.6 260.6c-1.6-4.4-3.2-8.8-4.8-13.3-0.2-0.6-0.3-1.3-0.4-1.9-0.1-1.1-0.1-2.3 1-2.7 1.3-0.4 1.7 0.8 2.1 1.8 2.1 5.2 2.7 10.6 2.1 16.1z"/> <path d="m358.6 264c-4.2-2.8-7.8-6.1-10.8-10.1-0.6-0.9-1.6-1.9-0.4-3s2.2 0 2.9 0.8c3.5 3.7 6.2 7.8 8.3 12.3z"/> <path d="m265.3 344.5c-2.5 0.4-2.8 1.2-1.4 3.3 3.3 5.1 1.9 11.7-3.3 15.6-1.4 1.1-1.9 2.1-1.8 3.7 0.2 6.5 0 13.1-1.7 19.4-0.8 3.1-2 6.1-3.8 8.8-2.3 3.7-6.1 5.2-10.3 4.2-6.4-1.5-10.3-6.1-13.5-11.3-1.9-3.1-3.5-6.5-5.1-9.8-1.6-3.4-3.4-6.5-6.5-8.8-1.9-1.4-3.4-3.3-4.7-5.5-1.5 1.7-2.8 3.3-4.1 4.9-0.8-5.1 4.7-9.7 10.4-8.6 0.1 0.5-0.2 0.7-0.6 0.8-1.2 0.3-2.8 0.2-3.1 1.5-0.4 1.5 1.3 2.2 2.2 3 7.8 6.2 17.1 5.6 23.5-1.1 2.7-2.9 2.6-6.1 1.8-9.5-0.3-1.1-1.1-1-1.9-1.2-3.1-0.6-6-1.7-8.6-3.4-2-1.3-2.1-2.4 0.6-4.2-1.7 1.9-1 2.6 0.4 3 1.7 0.5 3.4 1.2 5.1 1.6 4.1 1 6.8-0.3 9-4 2.4-4 0.7-7.4-4-7.6-5.4-0.2-10.1 1.9-14.3 5.2-0.7 0.6-1.4 1.3-2.1 1.9-0.6-0.8 0.1-1.2 0.5-1.6 4.2-5.6 9.9-8.5 16.9-7.8 6 0.6 8.4 5.3 5.6 10.7-0.7 1.4-1.8 2.4-2.7 3.6s-3.2 1.3-2.6 3.5c0.8 2.9 1.5 5.9 4.6 7.4 5.6 2.7 12.6-1.6 13.2-8.2 0.4-4.1-0.6-6.1-4-7.6 1.7-2 3.6-2.9 6.3-1.9zm-36.5 35.5c1.5 4.9 4 8.7 7.2 12 2.4 2.6 5.3 4.6 9 5 4 0.5 7-1.6 7.5-5.2 0.8-5.6-5.4-11.6-11-10.8-2 0.3-2.5 0.8-1 2.5 2.8 3.2 3.7 5.4 3.8 7.8-3.9-5.2-7.5-10.8-15.5-11.3zm16.8-17.1c-0.8 2.2-2.2 3.7-3.7 5.2-1.1 1 0.3 6.5 1.7 6.4 2.1-0.2 4.3-0.8 6.1-1.9 1.3-0.7 0.5-2 0.7-3.1 0.4-2.6-0.1-4.6-3-5.3-0.6-0.1-1-0.7-1.8-1.3z"/> <path d="m173.3 367.2c0.9-3.2 3.1-5.5 5.7-7.4 1.1-0.8 1.5-1.4 1.4-2.7-1-10.1 9-15.1 17.6-10.8 4.9 2.5 7.5 6.8 9 11.8 0.2 0.8 0.5 1.9-0.2 2.4-0.8 0.7-1.5-0.5-2.1-0.9-6.8-3.9-13.6-3.1-20.4-0.1-4.1 2-7.6 4.8-11 7.7z"/> <path d="m285.8 325.7c-0.3 3.1-1.9 4.9-4.6 6.1 0.4 0.9 1.7 0.8 1.9 2-1.2-0.4-2.4-0.8-3.5-1.1-7.4-1.7-12.7 1.1-15.6 8.2-0.3 0.8-0.2 2.1-1.6 2-1-0.1-1.6-1-1.9-1.9-1.3-4.4-1.7-8.7 0.3-13 1.5-3.2 3.9-5.3 7.6-5.6s6.5 1.3 8.8 4.2c0.9 1.1 0.7 3.4 2.6 3.2 2.1-0.2 3.8-1.6 5-3.4 0.2-0.2 0.1-0.7 1-0.7z"/> <path d="m165.7 329.6c-0.1-2.5 1-4.6 2.2-6.6 3-5 7.6-8.1 13.3-9.2 0.8-0.2 1.7-0.2 2.5 0 1 0.2 2.3 0.4 2.3 1.7 0 1.4-1.4 1-2.2 1.1-7.1 1.2-12.2 5.2-16.2 10.9-0.4 0.7-0.6 1.7-1.9 2.1z"/> <path d="m195.8 429.8c-13.1 0.6-34.1-5.5-43.5-14.3 6.5 3.9 13.3 7.3 20.5 9.7 7.3 2.4 14.7 3.7 23 4.6z"/> <path d="m266.9 300.4c-2.1-0.7-3.7-1.2-5.3-1.7-3.1-1-6.1-0.4-9 0.9-0.5 0.2-1.2 0.9-1.7 0.1-0.4-0.6-0.1-1.3 0.3-1.8 0.7-1 1.6-1.6 2.7-2 4.2-1.5 10 0.4 13 4.5z"/> <path d="m253.8 400.6c-2.7 7.4-9.8 9-15.8 3.5 6 2.3 11.4 1.8 15.8-3.5z"/> <path d="m254.5 286.2c-4.7-3.7-9.9-6.2-15.2-8.7 6.3 0.7 11.4 3.5 15.2 8.7z"/> <path d="m102 243.4c8.1-0.8 15.8 0.8 22.9 5.1-7.3-3.1-14.9-4.9-22.9-5.1z"/> <path d="m142.9 408.4c-5.1-2.5-6.3-7.3-7.2-12.2 2.2 4.2 4.1 8.6 7.2 12.2z"/> <path d="m90.4 245.9c-4.9 1.3-9.7 2.7-14.6 4-1.8 0.5-3.7 0.8-5.8 0.5 6.8-1.7 13.5-3.3 20.2-5 0.1 0.1 0.1 0.3 0.2 0.5z"/> <path d="m400.8 341.4c-1.6-1.8-2.9-3.4-4.7-5.5 2.8 1.4 4.3 3.2 5.5 5.3 0.6 1-0.4 1.3-1 1.7-2.5 1.6-5.3 2.7-8.3 2.5-2.1-0.2-2.4 0.8-2.7 2.5-1.2 7.2 5.7 13.4 12.4 13.7 5.4 0.2 10.1-1.4 13.9-5.1 2-1.9 1.9-2.7-0.7-3.7-0.7-0.3-1.5-0.3-2-0.9 4.7-1.6 9.3 1.5 12.2 8.7-1.9-1.7-3.4-3-4.7-4.3-0.9-0.8-1.4-1-2.1 0.3-1.7 3-4.3 5-7.3 6.6-2 1-3.1 2.6-4.1 4.5-2.5 5-5.1 10-9.2 13.8-1.3 1.2-2.7 2.4-4.3 3.3-6.8 3.9-13.3 2.1-17.1-4.8-3.9-7.2-4.4-15-4.1-22.9 0.1-2.1-0.2-3.7-1.8-5.3-3.5-3.8-4.3-8.4-2.5-13.2 0.8-2.1 0.2-2.5-2.5-2.4 3.7-2.1 6.5-3.7 10.2-3.5-2.6 1.9-4.7 3.9-5.5 7.2-1.5 6.8 4.6 14.3 11.2 13.4 3.8-0.5 7.1-4.5 6.8-8.2-0.1-0.8-0.7-0.8-1-1.2-2.2-2.2-3.8-4.7-4.6-7.7-1-4.3 1.3-7.5 5.7-7.9 7.8-0.6 15 3.9 17.5 11.5-2.9-3.2-5.5-5.9-9.1-7.5-2.6-1.2-5.3-1.9-8.2-1.6s-4.2 2.1-3.6 4.9c1.2 5.4 4.6 7.8 10 6.8 1.9-0.3 3.8-0.6 5.7-1zm-13.7 36.5c0.1-3.3 2.1-5.8 4.2-8.2-3.1-1.3-5.8-1.1-8.2 0.5-1.7 1.1-3 2.6-3.8 4.4-1.1 2.4-1 4.7 0.8 6.6 2 2.3 4.8 3 7.8 2.5 5.2-0.9 8.8-4.2 11.6-8.4 1-1.5 3.1-3.2 1.6-4.9s-4.1-1.1-6.2-0.3c-1.4 0.5-2.5 1.4-3.5 2.4-1.6 1.7-3 3.4-4.3 5.4zm0.3-24.2c-1.3 1-2.5 1.9-4 2.1s-2.1 1-2.1 2.5-0.4 3.3 1.4 4.2c1.2 0.6 2.4 1.3 3.6 1.5 0.9 0.2 2.3 1.4 2.9-0.3 0.5-1.6 2.3-3.1 0.8-4.9-1.1-1.5-1.7-3.2-2.6-5.1z"/> <path d="m456.6 364.2c-2.6-3.6-5.9-6.5-9.3-9.2-6.1-4.8-12.7-6.6-20.1-3.6-1.2 0.5-1.8 0.7-1.5-1 1-4.7 7.6-9.7 13.3-10 5.3-0.2 10.1 3.4 11.5 8.7 0.1 0.3 0.3 0.6 0.2 0.8-1.2 4.1 1.5 6.5 3.7 9.2 1.4 1.3 2.2 3.1 2.2 5.1z"/> <path d="m347.6 312.5c1.2 1.3 1.8 2.6 3 3.4 2.6 1.8 3.9 1.6 5.9-0.8 4.9-6.1 13.6-4.8 16.5 2.3 1.6 3.9 1.6 7.9 0.1 11.8-0.3 0.7-0.6 1.5-1.5 1.5-0.7 0-0.8-0.9-1.1-1.5-0.7-1.8-1.3-3.6-2.4-5.1-3.5-4.9-9.1-6.4-16-4.2-0.6 0.2-1.2 0.5-2.2 0.3 0.9-0.8 2.2-1.4 0.3-2.4-1.7-0.9-3-2.6-2.6-5.3z"/> <path d="m461.5 330.2c-1.2-1.6-2.5-3.2-3.7-4.7-3.9-4.9-8.9-8.1-15.1-9.4-0.9-0.2-2.2-0.1-2.2-1.3 0-1.3 1.3-1.7 2.4-2 0.7-0.2 1.5 0 2.2 0.1 7.7 1.3 15.3 8.5 16.8 15.8 0.1 0.5 0.4 0.9-0.4 1.5z"/> <path d="m363.1 293.2c4.1-5.6 12.9-8 18.7-5.1 2.1 1 3.5 2.5 3.9 4.9 0.1 0.4 0 1-0.3 1.3-0.4 0.4-0.9 0-1.2-0.3-6.3-5.5-13-4.4-19.8-1-0.4 0.2-0.8 0.5-1.3 0.2z"/> <path d="m392.2 391.6c-6.6 5.3-14.4 3-15.7-5 4.2 6 9.4 7.3 15.7 5z"/> <path d="m334.8 333c-3.2 4.5-5.4 9.4-6.3 14.9-0.3-6 1.8-11 6.3-14.9z"/> <path d="m378.4 277.6c3.4-4 8.1-5.5 13-6.5-4.3 2.2-8.8 4.1-13 6.5z"/> <path d="m487.1 395.6c0.1 5.2-3.4 8.1-7.1 10.9 3.2-3.2 5.2-7 7.1-10.9z"/> <path d="m484.3 395.7c-0.7 4.8-3.9 7.6-7.9 9.9 2.7-3.3 5.9-6.1 7.9-9.9z"/> <path d="m211.8 478.8c19.7 6.7 39 5.7 58.1-2.6-19 9.4-38.4 10.6-58.1 2.6z"/> <path d="m156.4 577.1c12.3 3.9 23.1-1.5 29.3-13.5-2.1 10.7-16.2 20.6-29.3 13.5z"/> <path d="m137.9 532.7c1.4 11.3 4.2 22 10.4 31.8-7.7-9.2-10.8-19.9-10.4-31.8z"/> <path d="m143.3 564c-7.3-11.1-8.7-23.6-8-36.5 0 12.7 1.8 25 8 36.5z"/> <path d="m164.6 479.2c-6.2 4.7-12.1 9.7-17.5 15.3 4.4-6.7 10.7-11.3 17.5-15.3z"/> <path d="m135.7 524.5c0.1-8.4 2.4-16.1 7-23.1-3.4 7.4-6 15-7 23.1z"/> <path d="m198.4 437.8c-2.1 1.6-4.2 3.2-5.8 5.3 0.9-2.9 3-4.5 5.8-5.3z"/> <path d="m259.7 550.2c5.1-7.4 8.9-15.3 11.4-23.8-0.2 9.6-5.1 17.1-11.4 23.8z"/> <path d="m258 492.1c-2.6 3.4-6.2 4.7-10.3 4.9 3.4-1.7 7.3-2.5 10.3-4.9z"/> <path d="m353.5 531.9c3.4 6.9 7.6 13.2 12.6 19-6.6-4.7-10.9-11-12.6-19z"/> <path d="m349.7 526.6c0.9 3.6 1.9 7.2 2.8 10.8-2.1-3.3-2.9-6.9-2.8-10.8z"/> <path d="m365.5 454.5c25.4 7.4 28.2 7.8 42.4 6.2-14.9 3.2-28.9 0.6-42.4-6.2z"/> <path d="m427.9 441.7c-0.3-6.1-1.3-11.3-6.1-15.3 4.9 1.9 7.1 7.5 6.1 15.3z"/> <path d="m152.8 198.5c2.4 6.1 5.1 12 7.4 18.1-3.2-5.7-6-11.6-7.4-18.1z"/> <path d="m440.2 226.1c1.9-4.4 3.8-8.8 5.7-13.2-1.4 4.7-2.8 9.3-5.7 13.2-0.1 0 0 0 0 0z"/> <path d="m504.5 294.1c6.9-2.9 13.5-6.4 19.9-10.3 6.3-3.9 12.1-8.5 17.9-13.1-10.9 10.6-23.3 18.6-37.8 23.4z"/> <path d="m250.7 571.6c-8.2 4.7-16.7 8.2-26.4 7.8 9.4-0.7 17.8-4.6 26.4-7.8z"/> <path d="m196.6 584.8c0.3 8.2 0.3 16.4 1.2 24.5-2.2-8.1-2.1-16.3-1.2-24.5z"/> <path d="m236.5 589.6c4.3-3.4 8.4-7 12.4-10.7-3.1 4.7-7.3 8.3-12.4 10.7z"/> <path d="m248.6 576c-2.6 2.2-5.5 3.7-8.9 4.5 2.7-2 5.8-3.3 8.9-4.5z"/> <path d="m348.5 545.2c7.3 10.8 17.3 17.9 30.2 21.7-10.1-0.3-26.6-12.2-30.2-21.7z"/> <path d="m405.8 570c3.5 7.8 5.6 16 6.5 24.5-2.4-7.5-3.7-15.2-6.5-22.6-0.3-0.5-0.1-1.2 0-1.9z"/> <path d="m476 549.4c-0.2 3.6-0.6 7-2.2 10.2-2.7 5.7-8.3 8.2-14.1 6.1-9.7-3.5-15.3-10.9-17.7-20.6-1.4-5.7 1.8-8.9 7.7-8.4 2.2 0.2 4.5 0.6 6.6 1.4 1.6 0.6 1.8 0.1 2.3-1.2 1.4-3.3 2.9-6.8 7.1-6.7 4 0.1 5.9 3.3 7.5 6.5 1.9 4.1 2.5 8.3 2.8 12.7zm-10.1 10.8c1.3-0.6 2.7-1.3 4-1.9 1.1-0.5 2-1.3 2.3-2.4 0.8-3.4 1.2-6.9 0.5-10.3-0.7-3.3-0.9-6.8-3.4-9.7-1-1.2-1.4-3.2-3.2-3.4s-3.2 1.1-4.2 2.5c-1.1 1.6-1.9 3.3-2.5 5.1-0.3 1.2-0.7 1.5-2 0.9-3.1-1.5-6.5-2-9.9-2.3-3.2-0.3-4.5 1.4-3.8 4.5 1.5 6.3 5.2 11.3 9.8 15.6 1.6 1.5 3.5 2.5 5.9 2 1.3-0.3 2.8-0.1 4.2-0.1-1.6 0.6-3.4 0.2-5.1 1 5.2 2.8 9.7 1.8 11.8-2.6-1.3 0.7-2.6 1.8-4.4 1.1z"/> <path d="m465.1 523.8c-11.8-2.1-20.3 3.4-27.6 11.7 1.8-4.1 4.9-7.1 8.5-9.9-6.3-1.6-11.3-7.6-11.1-13.2 0.1-3.4 2.6-5.2 5.8-4.2 5 1.6 10.1 9.6 9.4 14.9 2.6-0.5 5.1-1 7.7-1.3 2.6-0.4 5 0.6 7.3 2zm-17.4-3.8c0-2-5.4-9.1-7.8-9.7-1.4-0.3-2.4 0.1-2.5 1.8-0.4 3.7 3.6 9.7 7.3 10.5 1.5 0.3 3 0.3 3-2.6z"/> <path d="m434.8 533c-5.5-0.2-12.5-8.6-11.6-14 0.5-2.8 2.6-4.4 5.5-4 4.9 0.7 11.1 7.4 11.3 12.4 0.1 3.5-2 5.7-5.2 5.6zm-6.5-15.6c-2.2 0-3.2 1.4-2.7 3.5 0.8 2.9 2.5 5.3 4.8 7.2 1.8 1.4 3.6 3.5 6.2 2.1 1.6-0.9 1.2-4-0.9-6.9-2-2.7-4.1-5.3-7.4-5.9z"/> <path d="m448 508.8c0-4.2 2.9-6.2 6.5-4.2 4.8 2.6 7.5 6.9 8.1 12.2 0.4 3.2-1.6 4.7-4.7 4.1-5.5-1-9.9-6.3-9.9-12.1zm11 9.6c1.3 0.2 1.9-0.6 1.5-2-1-4-3.1-7.3-6.5-9.6-1.8-1.2-3.2-0.5-3.6 1.4-0.7 4.1 4.2 10.2 8.6 10.2z"/> <path d="m497.4 476.6c-8.1-0.9-13.1 3.2-16.7 9.9 0.6-7.5 11.3-13.2 16.7-9.9z"/> <path d="m501 514.2c1.4-1.5 2.9-2.9 4.1-4.5 1.3-1.6 2.3-3.4 3.8-5.6-1.2 4.8-4 7.7-7.5 10.3-0.2 0.1-0.3 0.1-0.4-0.2z"/> <path d="m109 498.2c0.8 2.8 1.9 5.5 3.3 8.1 1.4 2.5 3.1 4.9 5.8 7.4-5.7-2.9-9.4-9.6-9.1-15.5z"/> <path d="m107.2 503.7c2.5 6.7 5.3 12.5 11.7 16.3-6.1-1.7-11.5-9.3-11.7-16.3z"/> <path d="m142 483.8c-4.2-7.4-5.2-8.3-11.4-10.4 5.6-0.6 10.4 3.7 11.4 10.4z"/> <path d="m138.3 276.2c-3.5 1.3-6.3 1.6-9.7 1.4 3.2-0.5 6-0.9 9.7-1.4z"/> <path d="m137 270.6c-3.1 0.4-6.3 0.8-9.4 1.3 3.1-1 6.2-1.7 9.4-1.3z"/> <path d="m428.3 212.8c-1.5 1.8-3.5 2.8-5.8 3.4 1.9-1.2 3.9-2.3 5.8-3.4z"/> </g> </svg>