<?xml version='1.0' encoding='utf-8'?>
<svg xmlns="http://www.w3.org/2000/svg" baseProfile="full" version="1.1" viewBox="0 0 1024 1024"> <g> <path d="m510.49 39.796c-0.54891 0.9606-2.1957 3.8424-3.5679 6.587-2.1957 4.1169-2.3329 4.2541-1.6467 0.9606 0.9606-4.2541-1.2351-7.822-4.9402-7.822-3.4307 0-6.8614 5.9008-11.116 19.212l-3.5679 11.664-1.784-8.2337c-1.784-8.5082-4.6658-14.409-6.8614-14.409-0.54891 0-2.1957 1.0978-3.5679 2.3329-1.9212 1.9212-2.1957 4.1169-1.3723 14.821 0.82337 11.116 0.54891 13.997-2.6073 24.564-3.5679 12.625-4.2541 20.722-2.0584 24.152 1.6467 2.7446-7.2731 19.486-20.31 38.012-9.8805 13.86-25.662 42.541-29.916 53.931-1.0978 3.4307-2.7446 10.292-3.4307 15.37-0.54891 5.0775-5.2147 21.545-10.155 36.64-12.213 37.463-13.311 43.09-12.899 68.752l0.27446 21.27-7.822 18.938c-4.2541 10.567-7.6848 20.173-7.4103 21.408 0.27446 1.3723-1.3723 4.5285-3.5679 7.1359-7.822 9.1943-13.037 24.427-15.919 45.834-3.9796 30.465-4.3913 36.366-2.8818 40.757 0.82337 2.3329 1.5095 7.4103 1.5095 11.39 0 7.822 4.3913 26.348 7.9593 32.798 1.2351 2.3329 2.0584 4.6658 1.9212 5.0775-0.13723 0.54891 3.5679 11.939 8.0965 25.387 5.0775 14.821 8.3709 27.308 8.6454 31.425 0.13723 3.7052 2.0584 13.174 4.2541 20.859 2.0584 7.822 3.7052 14.272 3.2935 14.546-38.698 24.427-57.362 42.266-83.572 79.73-9.4688 13.586-18.251 27.034-19.624 29.916-1.3723 2.8818-3.4307 5.2147-4.5285 5.2147-3.7052 0-29.367 26.211-37.189 38.15-8.3709 12.762-6.8614 11.527-65.458 55.303-43.09 32.249-52.97 38.836-77.809 52.147-31.288 16.605-38.973 21.957-68.065 48.304-14.821 13.311-18.8 17.702-21.819 24.015-2.0584 4.2541-5.0775 10.018-6.8614 12.625-4.1169 5.9008-4.1169 10.155-0.27446 12.899 6.3125 4.3913 16.879 1.6467 25.113-6.587 3.019-3.019 6.1753-4.9402 8.3709-4.9402 5.3519 0 12.899-3.7052 21.682-10.567 6.9987-5.6264 9.1943-6.4497 15.781-6.9987 4.2541-0.27446 11.939 0.41169 17.016 1.6467 17.565 4.1169 31.974 1.6467 37.326-6.4497 1.2351-1.9212 3.019-8.7826 3.9796-15.095 2.7446-19.075 5.9008-21.819 37.738-34.582 12.351-4.803 25.799-10.704 30.053-13.037 4.1169-2.1957 9.7432-4.1169 12.213-4.1169 11.116 0 33.621-11.39 49.128-24.838 11.939-10.292 20.447-20.31 31.974-37.601 15.37-23.054 23.054-29.367 61.478-50.226 27.034-14.683 38.012-21.957 54.068-35.542 14.135-11.939 22.094-17.565 45.011-31.014 17.154-10.155 27.72-18.526 27.72-22.094 0-1.0978 1.9212-1.784 5.2147-1.784 6.9987 0 19.486-3.8424 20.31-6.1753 0.68614-1.6467 2.3329-1.2351 8.5082 1.9212 16.742 8.3709 34.582 13.174 63.4 17.154 24.015 3.4307 47.893 8.9199 56.264 13.174 13.586 6.9987 28.406 11.116 42.129 11.939 6.9987 0.41169 12.762 1.2351 12.762 1.784 0 2.6073 18.526 5.9008 37.738 6.8614 20.859 1.0978 30.602 3.1563 43.09 9.606 10.292 5.2147 23.054 8.3709 39.11 9.606 21.819 1.784 63.811 11.39 74.79 17.016 1.9212 1.0978 7.4103 5.3519 12.076 9.4688 6.587 5.9008 10.018 7.822 15.507 9.0571 3.8424 0.82337 7.6848 1.5095 8.6454 1.5095 0.9606 0 3.9796 1.6467 6.8614 3.5679 2.8818 1.9212 11.664 5.9008 19.486 8.7826 7.822 2.8818 18.8 7.6848 24.564 10.704 7.5476 3.9796 13.997 6.1753 23.603 7.822 21.27 3.8424 27.446 0.27446 27.171-15.644 0-9.606-3.4307-16.33-13.448-27.171-12.488-13.448-16.33-14.958-59.008-22.505-15.095-2.7446-18.114-3.7052-21.408-6.8614-2.1957-2.1957-5.9008-4.1169-9.0571-4.6658-16.879-2.6073-20.035-3.8424-40.894-16.467-27.446-16.605-68.203-39.522-80.828-45.285-15.644-7.2731-25.25-9.0571-52.421-10.292-32.935-1.5095-37.189-2.8818-72.594-23.603-8.9199-5.3519-32.66-18.114-52.833-28.406-20.035-10.429-41.718-22.094-48.167-25.936-6.4497-3.9796-12.351-7.1359-13.174-7.1359-0.82337 0-2.1957-1.6467-3.1563-3.5679-2.7446-6.0381-13.586-19.349-19.761-24.289-8.3709-6.7242-14.272-10.018-23.192-12.762-6.0381-1.784-8.9199-3.7052-12.213-7.822-5.7636-6.9987-8.6454-15.232-6.7242-18.8 5.6264-10.429-7.5476-20.859-48.03-37.875-11.39-4.803-14.821-6.8614-12.488-7.1359 4.6658-0.68614 46.109 20.035 55.852 27.995l7.822 6.4497 5.6264-6.0381c3.1563-3.2935 7.6848-7.6848 10.155-9.8805 2.3329-2.0584 4.3913-4.6658 4.3913-5.7636s1.784-2.8818 3.9796-4.1169c2.1957-1.0978 7.5476-5.0775 11.939-8.9199 11.664-10.155 18.389-11.939 38.15-9.8805 23.603 2.4701 33.347 2.0584 56.127-2.4701 36.091-7.2731 44.05-8.2337 59.832-7.2731 25.525 1.3723 55.715-2.6073 96.883-12.762 31.425-7.6848 34.17-7.6848 41.169-0.54891 3.019 3.1563 9.7432 7.6848 15.095 10.155 7.822 3.7052 10.841 6.1753 15.507 12.351 4.1169 5.3519 6.7242 7.6848 8.9199 7.6848 4.2541 0 6.4497-2.4701 6.4497-7.5476 0-3.7052-1.0978-6.0381-8.5082-16.879-2.6073-3.9796-1.9212-7.1359 1.784-7.1359 1.3723 0 9.606 3.1563 18.389 6.9987 17.154 7.4103 24.427 8.3709 27.308 3.5679 1.2351-1.9212 0.9606-2.8818-1.0978-4.3913-2.6073-1.9212-2.6073-2.0584 0-2.8818 6.8614-2.1957 8.7826-3.4307 8.7826-5.9008 0-3.2935-3.8424-5.6264-9.1943-5.6264h-3.8424l4.5285-2.7446c5.3519-3.2935 6.8614-6.4497 4.2541-8.9199-1.6467-1.6467-4.3913-1.6467-16.056-0.27446-10.978 1.2351-15.781 1.0978-21.957-0.13723-4.2541-0.9606-13.037-2.6073-19.486-3.7052-6.4497-1.0978-15.919-3.2935-21.27-4.9402-8.9199-2.7446-12.351-2.8818-43.913-2.7446-19.075 0.13723-41.306-0.41169-50.088-1.3723-25.25-2.6073-48.167-2.0584-60.93 1.3723-9.606 2.6073-11.939 2.7446-19.212 1.3723-5.6264-1.0978-17.428-1.2351-35.268-0.68614l-27.034 0.9606-14.135-6.0381c-17.016-7.2731-28.544-10.292-43.09-11.39-18.8-1.3723-22.231-4.2541-14.272-11.664 4.6658-4.3913 9.606-5.0775 12.213-1.9212 3.2935 3.9796 8.3709 2.4701 14.958-4.5285 3.5679-3.5679 9.0571-8.3709 12.351-10.567 6.4497-4.3913 14.409-14.135 19.486-24.015 4.3913-8.5082 4.5285-24.015 0.27446-33.209-4.2541-9.1943-14.272-19.486-22.643-23.054-18.8-8.0965-48.579-3.2935-61.89 10.155-2.4701 2.4701-6.1753 4.9402-8.2337 5.4891-2.6073 0.54891-4.5285 2.4701-6.0381 6.0381-1.2351 2.7446-3.9796 8.9199-6.3125 13.586-2.7446 5.6264-4.2541 11.116-4.5285 16.467-0.41169 7.9593-0.41169 7.9593-10.429 17.565l-10.018 9.606-1.6467-11.253c-1.0978-6.4497-4.1169-17.154-7.2731-24.976-3.019-7.4103-5.4891-15.095-5.4891-16.879 0-1.6467 1.9212-9.1943 4.1169-16.742 4.3913-14.409 7.1359-32.111 5.9008-38.15-0.54891-2.7446 0.27446-4.9402 2.7446-7.822 5.9008-6.9987 11.939-24.152 16.056-45.285 4.3913-22.78 5.2147-24.976 15.37-47.207l7.4103-16.193 8.6454-3.9796c9.8805-4.803 12.213-4.9402 20.31-1.9212 4.803 1.9212 6.3125 1.9212 7.9593 0.54891 5.7636-4.803-2.7446-15.507-13.448-17.154-5.6264-0.82337-6.4497-1.3723-6.4497-4.2541 0-5.6264 3.2935-11.527 13.586-25.113 10.429-13.86 12.488-18.114 9.7432-21.408-3.5679-4.3913-8.0965-1.9212-17.154 9.3315-2.8818 3.5679-5.4891 6.3125-5.7636 6.0381-0.27446-0.41169 1.3723-5.3519 3.7052-11.253 5.3519-13.448 5.2147-20.31-0.27446-20.996-1.9212-0.27446-4.1169 0.41169-4.6658 1.3723m0.13723 20.447c-2.7446 6.9987-4.803 13.997-4.5285 15.644 0.82337 5.4891 5.4891 3.019 13.997-7.4103 8.0965-9.7432 11.802-12.899 11.802-10.018 0 0.82337-4.9402 7.9593-10.978 16.056-11.39 15.095-14.272 21.408-13.448 29.504 0.41169 4.6658 0.54891 4.803 8.6454 6.4497 5.4891 1.0978 9.0571 2.6073 10.704 4.6658 3.1563 3.8424 2.1957 4.6658-3.2935 2.7446-6.587-2.1957-13.037-1.784-19.075 1.2351-10.155 5.2147-16.467 2.8818-16.467-6.0381 0-4.9402-2.4701-5.7636-6.9987-2.3329-5.2147 3.8424-8.9199 3.7052-10.018-0.41169-0.9606-3.8424 0.82337-14.135 3.9796-22.78 1.784-4.9402 2.0584-9.0571 1.5095-20.584-0.9606-15.232 0.41169-16.33 3.1563-2.6073 1.9212 8.9199 4.3913 13.037 7.2731 11.939 1.0978-0.41169 3.7052-6.7242 5.9008-14.135 2.0584-7.2731 5.0775-14.683 6.587-16.193 2.4701-2.8818 2.4701-2.8818 1.6467-0.27446-3.5679 10.429-6.587 25.25-5.6264 27.446 0.9606 2.6073 1.2351 2.6073 4.2541-0.9606 1.6467-1.9212 4.803-8.0965 6.8614-13.723 2.0584-5.4891 4.803-11.527 6.0381-13.448 4.3913-6.7242 3.2935 1.784-1.9212 15.232m-28.681 61.89c0.41169 1.2351 2.1957 3.5679 3.9796 4.9402l3.2935 2.6073-6.9987 14.272c-9.4688 19.624-10.292 22.094-15.37 47.893-4.9402 24.152-12.076 43.776-14.546 39.796-0.82337-1.0978-1.3723-3.1563-1.3723-4.5285s-0.9606-4.3913-2.1957-6.587c-1.5095-3.019-2.8818-3.9796-5.0775-3.7052-5.0775 0.68614-4.803 8.2337 0.54891 16.742 4.2541 6.8614 4.2541 7.2731 3.5679 19.624-0.54891 8.7826-2.3329 18.114-5.7636 30.19l-5.0775 17.565 6.1753 15.781c3.4307 8.6454 6.7242 19.624 7.4103 24.289l1.3723 8.3709-3.2935-1.2351c-6.1753-2.3329-18.526-1.3723-26.76 2.0584l-7.9593 3.2935 0.82337-3.7052c0.54891-1.9212 2.3329-7.9593 4.2541-13.174 4.3913-12.899 5.0775-15.781 3.5679-15.781-3.9796 0-10.704 16.193-12.351 29.916-0.54891 5.0775-1.784 7.9593-4.2541 10.155l-3.4307 3.1563 2.0584-4.1169c1.2351-2.3329 3.4307-9.606 4.9402-16.33 2.4701-10.155 2.6073-12.899 1.2351-15.781-2.3329-5.0775-5.7636-5.0775-10.292-0.27446-2.1957 2.3329-4.2541 3.8424-4.803 3.4307-1.6467-1.6467-0.9606-21.133 0.9606-32.111 1.0978-5.6264 4.9402-19.898 8.7826-31.563 9.4688-28.818 12.213-38.836 13.86-49.951 1.6467-11.527 13.997-37.189 27.308-56.95 4.9402-7.2731 10.978-16.33 13.586-20.035 2.4701-3.8424 6.0381-10.018 7.9593-13.86 3.019-6.3125 3.5679-6.8614 8.0965-6.8614 3.5679 0 5.2147 0.68614 5.7636 2.4701m-35.268 106.08v2.7446l-1.2351-2.7446c-0.68614-1.5095-1.2351-3.7052-1.2351-4.803-0.13723-1.784 0-1.784 1.2351 0 0.68614 1.0978 1.2351 3.2935 1.2351 4.803m93.453 47.893c-8.7826 3.2935-19.761 9.3315-25.662 14.272-4.5285 3.5679-5.9008 4.1169-5.9008 2.4701 0-1.2351-0.9606-2.6073-2.0584-3.019-7.5476-2.8818 19.761-15.37 33.621-15.37l4.803-0.13723-4.803 1.784m21.682 4.2541c14.546 4.3913 23.603 17.291 23.603 33.758 0 10.704-3.9796 19.761-12.762 29.367-6.3125 6.7242-20.447 15.781-24.701 15.781-2.4701 0-2.6073-0.68614-1.9212-7.5476 0.9606-9.7432-0.82337-16.193-6.0381-20.447-4.1169-3.4307-6.9987-4.5285-21.957-7.5476-10.292-2.1957-12.488-3.9796-13.448-11.253-0.68614-5.0775-1.3723-5.9008-3.5679-5.6264-6.4497 1.0978-7.9593 0.82337-9.3315-1.2351-0.9606-1.6467-0.9606-3.4307 0.27446-6.4497 2.3329-5.6264 6.3125-6.8614 10.292-3.1563 4.3913 4.1169 7.9593 3.5679 14.683-2.0584 9.7432-8.0965 25.25-15.095 34.993-15.507 1.5095-0.13723 6.0381 0.82337 9.8805 1.9212m-72.319 35.405c-0.9606 1.784-3.1563 5.0775-4.9402 7.2731l-3.2935 3.9796 1.3723-5.4891c0.82337-3.019 2.0584-7.2731 2.8818-9.3315 1.3723-3.4307 1.784-3.7052 3.5679-1.784 1.784 1.784 1.9212 2.6073 0.41169 5.3519m8.0965 0.9606c0 1.5095-0.9606 2.7446-2.0584 2.7446-2.0584 0-2.8818-2.8818-1.0978-4.5285 1.6467-1.784 3.1563-0.9606 3.1563 1.784m10.704 8.7826c2.0584 0.9606 7.9593 2.6073 13.174 3.4307 10.841 1.9212 16.605 4.3913 18.663 8.3709 1.0978 2.1957 1.6467 26.073 0.54891 26.073-0.27446 0-1.9212-0.54891-3.7052-1.2351-2.7446-1.0978-3.7052-2.8818-4.9402-8.3709-2.7446-12.899-8.2337-19.624-20.035-24.838-8.0965-3.4307-11.664-6.3125-11.664-9.3315 0-1.5095 0.54891-1.2351 2.1957 0.9606 1.0978 1.6467 3.7052 3.8424 5.7636 4.9402m-19.624 5.9008c-2.4701 5.7636-16.056 30.602-20.035 36.366-1.5095 2.0584-2.6073 4.3913-2.6073 5.0775 0 3.019 4.6658 5.6264 10.018 5.7636l5.7636 0.13723-6.1753 1.9212c-33.895 10.978-56.538 12.899-59.557 5.2147-3.2935-8.6454 23.192-29.367 37.601-29.367 5.3519 0 6.587-0.82337 16.33-10.292 5.7636-5.6264 12.625-12.899 15.232-16.33 5.4891-6.8614 6.7242-6.3125 3.4307 1.5095m20.722 1.2351c11.253 5.3519 12.899 7.2731 17.016 18.938 1.5095 4.5285 3.5679 9.0571 4.3913 10.155 1.5095 1.6467 1.3723 2.1957-0.27446 2.7446-1.0978 0.41169-3.9796 2.6073-6.3125 5.0775-4.2541 4.1169-4.5285 4.1169-7.2731 1.9212-4.9402-3.9796-19.898-5.9008-31.563-4.1169-5.4891 0.82337-10.429 1.2351-10.841 0.9606-0.27446-0.41169 1.9212-5.2147 5.0775-10.704 3.1563-5.4891 8.3709-15.37 11.39-22.094 4.2541-8.9199 6.0381-11.39 6.9987-9.8805 0.54891 1.0978 5.7636 4.2541 11.39 6.9987m-102.78 3.2935c-1.9212 16.056-5.0775 23.329-14.272 32.798-8.7826 9.0571-8.7826 9.0571-6.4497 3.5679 1.2351-3.019 4.5285-12.076 7.4103-20.035 7.4103-21.545 14.958-30.739 13.311-16.33m39.385 16.193c0.27446 0.54891-2.1957 2.0584-5.7636 3.2935-6.7242 2.4701-20.859 13.037-25.25 18.938-4.2541 5.9008-4.5285 11.39-0.68614 15.781 3.019 3.5679 4.3913 4.1169 13.037 4.5285 11.939 0.68614 27.171-2.1957 48.853-9.4688 8.9199-2.8818 18.389-5.3519 21.27-5.2147 3.7052 0 0.82337 1.2351-11.253 4.803-22.505 6.4497-49.128 16.605-80.553 30.602-24.289 10.841-30.739 14.272-41.031 21.682l-3.2935 2.3329 0.9606-6.7242c3.1563-21.957 7.822-29.504 33.209-54.891 11.802-11.664 21.545-21.27 21.682-21.27 0.13723 0 3.5679-1.2351 7.6848-2.7446 7.5476-2.6073 19.898-3.7052 21.133-1.6467m103.2 13.311c-3.019 2.3329-6.3125 2.7446-6.3125 0.82337 0-1.3723 3.019-2.4701 6.8614-2.7446 1.5095 0 1.3723 0.54891-0.54891 1.9212m-36.366 8.3709c5.2147 2.1957 7.6848 5.4891 3.019 4.1169-6.8614-2.0584-11.664-2.6073-26.897-3.4307l-16.742-0.9606 8.9199-1.5095c10.704-1.9212 24.289-1.0978 31.7 1.784m12.488 11.527c0.82337 0-1.3723 2.4701-4.9402 5.6264-3.4307 3.019-8.9199 10.018-12.076 15.37-3.1563 5.2147-8.7826 12.625-12.351 16.193-6.587 6.587-8.9199 7.9593-48.304 26.622-18.938 8.7826-37.875 20.584-53.245 32.798-9.4688 7.5476-18.663 18.8-24.838 30.739l-4.6658 8.6454-2.3329-10.018c-1.3723-5.4891-2.7446-13.723-3.1563-18.251-0.68614-8.0965-0.54891-8.3709 6.3125-18.8 23.192-34.582 83.161-72.457 135.31-85.356 19.075-4.6658 18.938-4.6658 20.996-4.1169 1.0978 0.27446 2.4701 0.54891 3.2935 0.54891m36.915 5.4891c3.2935 0.9606 10.018 3.2935 14.958 5.2147l8.7826 3.5679-4.3913 1.0978c-2.8818 0.82337-4.3913 2.0584-4.3913 3.7052 0 3.5679 4.5285 4.3913 12.076 2.1957 4.6658-1.2351 16.056-1.784 42.129-1.6467l35.679 0.27446 5.6264 5.7636c4.6658 4.803 6.7242 5.9008 10.567 5.9008 2.7446 0 5.3519-0.54891 5.7636-1.3723 1.2351-2.0584-1.3723-6.0381-5.3519-8.2337-1.9212-0.9606-3.5679-2.1957-3.5679-2.7446 0-1.784 15.507-4.1169 27.446-4.1169 6.4497 0 22.505 0.9606 35.679 2.1957 17.84 1.6467 31.151 1.9212 51.598 1.2351 26.622-0.82337 27.995-0.82337 40.482 2.6073 24.289 6.4497 36.64 8.3709 55.715 8.3709 16.33 0 17.84 0.13723 14.546 1.784-1.9212 1.0978-10.429 3.019-18.8 4.3913-19.349 3.1563-22.78 3.9796-26.485 6.3125-4.6658 2.8818-3.9796 8.6454 1.5095 15.919 5.0775 6.587 7.4103 12.625 5.3519 13.86-1.784 1.0978-3.5679-0.41169-8.3709-7.5476-3.4307-5.0775-6.4497-7.4103-14.272-11.116-5.4891-2.6073-11.802-6.7242-14.135-9.1943-4.9402-5.2147-10.292-8.2337-14.821-8.2337-1.784 0-14.683 2.7446-28.544 6.3125-42.815 10.567-84.945 15.919-102.1 13.174-8.9199-1.5095-23.466 0.41169-56.264 7.1359-19.349 3.9796-30.053 4.6658-56.675 3.019l-19.624-1.2351 5.6264-5.7636c6.8614-6.9987 7.6848-12.076 2.6073-16.056-5.0775-3.8424-17.565-4.6658-28.132-1.9212-18.251 4.803-14.821 1.2351 4.2541-4.3913 17.154-5.0775 22.78-7.4103 25.387-10.567 1.784-2.0584 1.6467-2.6073-0.54891-4.2541-3.1563-2.3329-7.822-1.3723-15.232 3.019-9.606 5.6264-24.564 12.625-29.504 13.586-4.5285 0.9606-4.6658 0.9606-2.7446-1.5095 1.0978-1.5095 6.1753-6.9987 11.253-12.351 6.8614-7.2731 9.606-11.253 10.704-15.781l1.5095-6.1753 9.3315 0.9606c5.2147 0.54891 12.076 1.784 15.37 2.6073m-33.347 7.5476c-6.0381 8.5082-20.722 23.329-19.624 19.761 1.784-5.3519 12.899-21.408 17.565-25.387 3.8424-3.2935 4.3913-3.4307 4.803-1.3723 0.27446 1.3723-0.9606 4.5285-2.7446 6.9987m-89.885 10.292c-34.033 17.977-62.165 40.757-76.574 62.165l-4.803 7.1359v-6.9987c0-10.429 2.3329-20.859 5.6264-25.525 5.7636-8.0965 22.368-16.879 69.849-37.052 10.155-4.2541 19.212-7.822 19.898-7.822 0.82337 0-5.6264 3.5679-13.997 8.0965m62.439 20.859c-1.9212 10.292-0.54891 29.916 2.7446 37.189 1.5095 3.2935 4.2541 7.2731 6.0381 8.6454l3.4307 2.4701-8.2337 7.9593-8.2337 7.822-5.3519-4.6658c-5.9008-4.9402-39.796-22.917-50.637-26.76l-6.7242-2.3329 12.762-5.9008c35.679-16.605 45.834-21.957 50.226-26.622 2.6073-2.7446 4.9402-4.9402 5.0775-4.9402 0.13723 0-0.41169 3.2935-1.0978 7.1359m408.8-1.6467c1.9212 1.0978 0 1.3723-8.0965 1.0978-6.7242-0.27446-11.253-1.0978-12.351-2.3329-1.5095-1.5095-0.13723-1.784 8.0965-1.0978 5.4891 0.41169 11.116 1.5095 12.351 2.3329m-352.4 2.6073c1.784 0.9606 2.3329 2.3329 1.9212 4.2541-1.3723 5.0775-35.542 32.935-40.482 32.935-1.3723 0-3.7052-1.2351-5.2147-2.7446-7.9593-7.9593 2.7446-29.779 17.154-35.131 6.0381-2.1957 21.819-1.784 26.622 0.68614m331.54 1.3723c5.3519 2.1957 11.527 4.9402 13.723 6.3125l4.1169 2.3329-4.803-0.68614c-5.7636-0.82337-29.23-11.802-25.387-11.939 1.5095 0 7.1359 1.784 12.351 3.9796m-372.3 3.019c-3.019 3.019-6.4497 8.0965-7.6848 11.253l-1.9212 5.7636-0.13723-8.9199c-0.13723-11.939 1.0978-13.448 10.704-13.586l4.5285-0.13723-5.4891 5.6264m-81.239 42.815c9.1943 7.822 25.25 18.526 39.796 26.622 15.095 8.3709 13.311 9.4688-6.3125 3.8424-15.232-4.3913-25.936-9.3315-40.345-18.663-9.1943-5.9008-12.762-7.2731-18.8-7.822l-7.4103-0.68614 11.39-7.822 11.39-7.9593 2.1957 3.7052c1.2351 2.0584 4.9402 6.0381 8.0965 8.7826m80.965-6.0381c3.4307 1.5095 3.4307 1.5095-0.54891 1.0978-2.4701-0.13723-4.803-1.5095-6.1753-3.7052-2.0584-3.4307-2.0584-3.4307 0.68614-1.0978 1.3723 1.2351 4.2541 3.019 6.0381 3.7052m-64.909 7.5476c24.427 10.429 38.836 19.349 38.836 24.152 0 1.5095-0.68614 2.7446-1.3723 2.7446-2.6073 0-33.347-17.977-41.443-24.289-11.527-8.7826-11.116-9.1943 3.9796-2.6073m-21.545 16.467c18.663 11.116 37.052 18.251 51.186 19.761 7.6848 0.82337 8.3709 1.2351 9.3315 4.803 0.54891 2.1957 2.7446 6.0381 4.6658 8.6454 2.0584 2.7446 3.4307 5.0775 3.2935 5.2147-0.27446 0.27446-2.3329 1.3723-4.6658 2.6073-2.1957 1.0978-11.253 7.2731-19.898 13.586-20.584 15.095-32.523 22.094-46.795 27.308-12.488 4.6658-28.681 6.587-36.777 4.3913-4.5285-1.2351-4.6658-1.3723-12.762-25.113l-8.2337-24.015 7.822-13.723c11.116-19.349 20.035-30.053 26.76-32.66 5.3519-2.0584 10.018-0.41169 26.073 9.1943m-49.951 10.018c-3.2935 5.2147-7.2731 11.939-8.9199 15.095-1.6467 3.2935-3.2935 5.9008-3.5679 5.9008-1.2351 0 8.5082-18.389 12.899-24.427 6.587-8.7826 6.3125-6.8614-0.41169 3.4307m120.49 35.679c-4.3913 19.075-37.875 43.639-67.654 49.951-9.4688 1.9212-30.876 0.9606-37.189-1.784l-4.803-1.9212 10.978-0.27446c19.898-0.27446 42.266-9.7432 69.849-29.641 17.977-12.899 28.269-20.035 29.092-20.035 0.27446 0 0.27446 1.6467-0.27446 3.7052m23.192 4.803c8.2337 4.3913 20.447 15.781 24.701 22.78l2.3329 4.1169-6.9987 0.9606c-18.8 2.6073-40.757 19.898-49.951 39.385-9.8805 21.133-8.6454 39.522 3.4307 51.598 2.1957 2.3329 4.1169 4.5285 4.1169 4.803 0 0.41169-4.1169 1.3723-9.1943 2.1957-12.351 2.0584-18.663 0.13723-33.621-10.292-28.406-19.898-45.148-30.465-54.617-34.719l-10.292-4.6658-2.6073-9.7432c-1.3723-5.3519-3.2935-12.899-4.2541-16.605l-1.6467-6.9987 6.3125 3.1563c18.251 9.0571 44.05 6.7242 69.849-6.3125 20.722-10.429 41.443-30.328 43.639-41.992 0.82337-4.3913 0.82337-4.5285 5.7636-3.1563 2.8818 0.68614 8.6454 3.2935 13.037 5.4891m47.756 42.953c6.9987 4.2541 30.328 16.879 51.872 27.995 21.545 11.116 41.992 21.957 45.423 24.152 3.4307 2.1957 12.488 7.4103 20.31 11.802l14.135 7.822-7.822 2.3329c-9.4688 2.7446-16.056 8.7826-18.251 16.467-2.6073 9.3315 0.82337 16.879 11.253 24.976 2.1957 1.6467 3.5679 3.7052 3.019 4.5285-1.2351 2.0584-20.996 1.6467-30.19-0.68614-10.018-2.6073-24.701-9.4688-39.659-18.389-11.802-7.1359-71.908-40.345-75.476-41.718-3.8424-1.5095-3.7052 1.5095 0.13723 4.2541 2.1957 1.3723 12.213 7.1359 22.368 12.625 20.996 11.39 46.658 26.073 46.658 26.76 0 0.27446-1.9212 0-4.2541-0.68614-2.4701-0.68614-14.821-2.8818-27.72-4.9402-41.58-6.3125-67.654-14.821-76.985-25.387-6.1753-6.7242-9.7432-18.251-8.6454-27.72 2.0584-16.33 17.84-37.326 35.268-46.795 15.507-8.3709 21.408-7.9593 38.561 2.6073m-55.715 4.9402c-4.9402 4.6658-10.841 11.39-13.311 15.095-4.803 7.4103-6.4497 8.7826-3.2935 2.8818 3.8424-7.4103 10.567-15.37 17.428-20.859 3.8424-3.019 7.2731-5.4891 7.5476-5.4891 0.41169 0-3.4307 3.8424-8.3709 8.3709m-19.761 26.897c-1.6467 2.7446-1.9212 1.9212-0.68614-1.6467 0.54891-1.2351 1.2351-1.9212 1.5095-1.5095 0.41169 0.27446 0 1.784-0.82337 3.1563m-95.099 13.174c4.1169 2.4701 13.311 8.9199 20.584 14.409 25.936 19.624 39.659 27.857 50.088 29.779 2.7446 0.54891 5.0775 1.5095 5.0775 2.0584 0 1.6467-11.527 9.606-26.76 18.526-18.938 10.978-27.171 16.742-42.541 29.504-17.977 14.958-24.838 19.349-53.519 34.993-40.071 21.545-47.069 27.446-65.184 54.205-18.8 27.72-38.15 44.874-57.362 50.775-12.762 3.9796-16.33 3.7052-17.428-1.2351-0.41169-2.1957-1.6467-4.803-2.6073-5.4891-4.6658-3.8424-11.116 4.803-9.606 12.899 0.9606 5.6264 0.82337 5.7636-26.76 16.467-39.11 15.232-44.737 19.898-46.383 39.385-1.0978 12.213-4.3913 17.565-12.625 20.173-5.4891 1.6467-7.822 1.6467-23.329-1.0978-22.368-3.7052-24.289-3.4307-38.561 7.4103-7.6848 5.9008-14.409 8.9199-19.898 8.9199-1.6467 0-4.6658 1.9212-6.9987 4.2541-2.1957 2.3329-5.6264 5.0775-7.6848 6.1753-3.9796 2.0584-12.899 2.6073-13.86 0.82337-0.41169-0.54891 2.4701-6.7242 6.4497-13.86 6.587-12.076 8.2337-14.135 27.446-31.288 24.427-21.819 33.072-27.857 61.89-43.639 29.779-16.193 37.463-21.408 85.768-57.636 52.559-39.247 53.794-40.345 59.008-49.677 4.2541-7.4103 28.269-33.621 33.347-36.366 2.3329-1.2351 2.4701-0.82337 1.6467 4.803-0.68614 4.6658-0.41169 6.587 1.3723 8.3709 1.784 1.784 2.7446 1.9212 4.2541 0.68614 2.7446-2.1957 3.8424-10.429 2.1957-16.056-1.0978-3.4307-1.0978-5.6264 0-7.6848 2.0584-3.9796 29.23-42.678 35.131-50.226 7.822-9.8805 27.583-29.779 36.777-37.189 11.939-9.4688 28.269-19.212 30.739-18.389 1.0978 0.41169 5.3519 2.7446 9.3315 5.2147m96.746 21.682c3.4307 7.1359 3.4307 7.2731 0.41169 3.4307-4.2541-5.2147-6.3125-12.625-6.1753-21.545l0.27446-7.4103 0.9606 9.0571c0.54891 5.4891 2.3329 12.213 4.5285 16.467m-54.205 0.9606c7.6848 5.4891 13.997 10.429 13.997 10.704 0 1.3723-16.605-9.7432-30.465-20.447-20.035-15.37-10.704-9.8805 16.467 9.7432m275.97 8.5082c3.4307 0.9606 17.291 2.0584 30.876 2.6073 21.682 0.9606 26.211 1.6467 35.817 4.803 13.586 4.6658 56.813 28.269 97.981 53.519 14.546 9.0571 19.624 10.978 30.602 12.351 9.4688 1.2351 14.958 4.803 12.213 8.0965-2.8818 3.7052-1.3723 8.5082 3.019 8.9199 3.019 0.41169 4.1169-0.27446 5.4891-3.5679 0.82337-2.1957 2.3329-3.7052 3.019-3.5679 0.82337 0.27446 11.802 2.3329 24.564 4.6658 12.899 2.3329 25.387 5.2147 27.857 6.1753 6.4497 2.7446 19.212 15.232 23.878 23.329 4.2541 7.2731 5.3519 17.565 2.6073 22.78-3.1563 5.7636-28.406 1.784-44.599-6.9987-5.2147-2.8818-14.821-7.1359-21.27-9.3315-6.587-2.3329-16.056-6.3125-21.133-9.0571-5.0775-2.7446-10.841-4.9402-12.625-4.9402-5.4891 0-12.488-3.5679-19.349-10.018-3.7052-3.4307-9.3315-7.4103-12.625-9.1943-9.3315-4.6658-51.872-14.821-69.3-16.467-21.819-2.1957-28.544-3.7052-45.011-10.429-8.2337-3.2935-17.154-6.587-19.898-7.1359l-5.2147-1.0978 7.5476-3.9796c8.6454-4.803 13.174-11.116 11.664-16.879-1.784-6.9987-11.39-14.135-31.288-23.466-10.429-4.6658-21.408-8.9199-24.427-9.3315-4.803-0.68614-5.0775-0.9606-3.019-2.6073 1.3723-0.9606 3.4307-1.5095 4.5285-1.2351 1.0978 0.27446 4.803 1.2351 8.0965 2.0584m-24.152 4.1169c-9.606 5.7636-11.664 15.644-5.4891 26.622 2.8818 5.2147 3.1563 6.0381 0.9606 4.9402-5.3519-2.8818-9.606-9.606-9.606-15.232 0-7.9593 3.2935-13.311 10.018-16.467 7.5476-3.2935 9.7432-3.2935 4.1169 0.13723m24.564 6.1753c16.056 6.4497 31.288 19.212 31.288 26.211 0 3.8424-6.3125 10.704-11.116 12.213-1.3723 0.54891-2.6073 1.784-2.6073 2.8818 0 1.5095-2.6073 1.9212-12.899 1.9212-7.1359 0-16.056-0.68614-19.898-1.6467-6.4497-1.5095-6.7242-1.6467-4.2541-3.4307 3.8424-2.7446 3.4307-4.3913-2.8818-13.311-9.0571-12.762-8.9199-23.466 0.54891-27.583 5.2147-2.3329 10.978-1.5095 21.819 2.7446m35.542 17.428c1.0978 0.9606 3.1563 3.4307 4.5285 5.3519 3.1563 4.9402 0.9606 9.4688-6.587 13.723l-5.6264 3.1563 3.8424-4.5285c4.9402-5.9008 4.9402-12.213 0-18.114-2.8818-3.2935-3.019-3.9796-1.0978-2.8818 1.5095 0.9606 3.7052 2.3329 4.9402 3.2935m-57.91 13.997c1.0978 1.3723 1.0978 2.1957-0.13723 3.2935-1.3723 1.0978-1.784 0.54891-1.784-1.9212 0-3.8424-0.13723-3.8424 1.9212-1.3723m233.01 43.639c-0.41169 1.0978-0.82337 0.68614-0.82337-0.82337-0.13723-1.5095 0.27446-2.3329 0.68614-1.784 0.41169 0.41169 0.54891 1.6467 0.13723 2.6073m-721.96 121.45c-0.68614 1.6467-1.3723 1.784-2.3329 0.82337-1.0978-1.0978-0.9606-2.4701 0.27446-4.6658 1.6467-2.8818 1.9212-3.019 2.3329-0.82337 0.27446 1.3723 0.13723 3.4307-0.27446 4.6658m7.4103 3.9796c0 0.27446-1.2351 0.54891-2.8818 0.54891-1.5095 0-2.4701-0.54891-1.9212-1.3723 0.68614-1.0978 4.803-0.41169 4.803 0.82337"/> <path d="m403.45 550.56c-1.0978 4.5285 2.1957 10.978 5.7636 11.527 4.2541 0.54891 5.2147-3.2935 2.3329-9.1943-3.019-6.0381-6.8614-7.2731-8.0965-2.3329"/> </g> </svg>